<mxfile host="app.diagrams.net" modified="2021-04-14T10:06:23.993Z" agent="5.0 (Windows NT 10.0; Win64; x64) AppleWebKit/537.36 (KHTML, like Gecko) Chrome/88.0.4324.182 Safari/537.36" etag="WqfqGwd68QR3TR-iufJ1" version="14.6.0" type="github" pages="9">
  <diagram id="pEYMlLx5p1jDI1TiJ8Ic" name="teacher management">
    <mxGraphModel dx="868" dy="426" grid="0" gridSize="10" guides="1" tooltips="1" connect="1" arrows="1" fold="1" page="1" pageScale="1" pageWidth="827" pageHeight="1169" math="0" shadow="0">
      <root>
        <mxCell id="0" />
        <mxCell id="1" parent="0" />
        <mxCell id="rcFtB1nDnAv8-7WCDxbc-1" value="开始" style="rounded=1;whiteSpace=wrap;html=1;" parent="1" vertex="1">
          <mxGeometry x="1" y="525" width="120" height="60" as="geometry" />
        </mxCell>
        <mxCell id="rcFtB1nDnAv8-7WCDxbc-2" value="" style="endArrow=classic;html=1;" parent="1" edge="1">
          <mxGeometry width="50" height="50" relative="1" as="geometry">
            <mxPoint x="60" y="588" as="sourcePoint" />
            <mxPoint x="60" y="700" as="targetPoint" />
          </mxGeometry>
        </mxCell>
        <mxCell id="rcFtB1nDnAv8-7WCDxbc-7" value="" style="edgeStyle=orthogonalEdgeStyle;rounded=0;orthogonalLoop=1;jettySize=auto;html=1;" parent="1" source="rcFtB1nDnAv8-7WCDxbc-4" target="rcFtB1nDnAv8-7WCDxbc-6" edge="1">
          <mxGeometry relative="1" as="geometry" />
        </mxCell>
        <mxCell id="rcFtB1nDnAv8-7WCDxbc-4" value="点击添加讲师" style="rounded=0;whiteSpace=wrap;html=1;" parent="1" vertex="1">
          <mxGeometry y="700" width="120" height="60" as="geometry" />
        </mxCell>
        <mxCell id="rcFtB1nDnAv8-7WCDxbc-11" value="" style="edgeStyle=orthogonalEdgeStyle;rounded=0;orthogonalLoop=1;jettySize=auto;html=1;" parent="1" source="rcFtB1nDnAv8-7WCDxbc-6" target="rcFtB1nDnAv8-7WCDxbc-10" edge="1">
          <mxGeometry relative="1" as="geometry" />
        </mxCell>
        <mxCell id="rcFtB1nDnAv8-7WCDxbc-6" value="编辑讲师信息" style="rounded=0;whiteSpace=wrap;html=1;" parent="1" vertex="1">
          <mxGeometry y="810" width="120" height="60" as="geometry" />
        </mxCell>
        <mxCell id="rcFtB1nDnAv8-7WCDxbc-32" value="是" style="edgeStyle=orthogonalEdgeStyle;rounded=0;orthogonalLoop=1;jettySize=auto;html=1;" parent="1" source="rcFtB1nDnAv8-7WCDxbc-10" edge="1">
          <mxGeometry relative="1" as="geometry">
            <mxPoint x="180" y="760" as="targetPoint" />
          </mxGeometry>
        </mxCell>
        <mxCell id="rcFtB1nDnAv8-7WCDxbc-10" value="保存" style="rhombus;whiteSpace=wrap;html=1;rounded=0;" parent="1" vertex="1">
          <mxGeometry x="140" y="800" width="80" height="80" as="geometry" />
        </mxCell>
        <mxCell id="rcFtB1nDnAv8-7WCDxbc-17" value="" style="edgeStyle=orthogonalEdgeStyle;rounded=0;orthogonalLoop=1;jettySize=auto;html=1;" parent="1" source="rcFtB1nDnAv8-7WCDxbc-12" target="rcFtB1nDnAv8-7WCDxbc-16" edge="1">
          <mxGeometry relative="1" as="geometry" />
        </mxCell>
        <mxCell id="rcFtB1nDnAv8-7WCDxbc-26" value="" style="edgeStyle=orthogonalEdgeStyle;rounded=0;orthogonalLoop=1;jettySize=auto;html=1;" parent="1" source="rcFtB1nDnAv8-7WCDxbc-12" target="rcFtB1nDnAv8-7WCDxbc-25" edge="1">
          <mxGeometry relative="1" as="geometry" />
        </mxCell>
        <mxCell id="rcFtB1nDnAv8-7WCDxbc-40" style="edgeStyle=orthogonalEdgeStyle;rounded=0;orthogonalLoop=1;jettySize=auto;html=1;entryX=1;entryY=0.5;entryDx=0;entryDy=0;" parent="1" source="rcFtB1nDnAv8-7WCDxbc-12" target="rcFtB1nDnAv8-7WCDxbc-39" edge="1">
          <mxGeometry relative="1" as="geometry">
            <mxPoint x="430" y="970" as="targetPoint" />
            <Array as="points">
              <mxPoint x="466" y="920" />
            </Array>
          </mxGeometry>
        </mxCell>
        <mxCell id="rcFtB1nDnAv8-7WCDxbc-12" value="讲师列表" style="whiteSpace=wrap;html=1;rounded=0;" parent="1" vertex="1">
          <mxGeometry x="406" y="810" width="120" height="60" as="geometry" />
        </mxCell>
        <mxCell id="rcFtB1nDnAv8-7WCDxbc-19" value="是" style="edgeStyle=orthogonalEdgeStyle;rounded=0;orthogonalLoop=1;jettySize=auto;html=1;" parent="1" source="rcFtB1nDnAv8-7WCDxbc-16" target="rcFtB1nDnAv8-7WCDxbc-18" edge="1">
          <mxGeometry relative="1" as="geometry" />
        </mxCell>
        <mxCell id="rcFtB1nDnAv8-7WCDxbc-21" value="否" style="edgeStyle=orthogonalEdgeStyle;rounded=0;orthogonalLoop=1;jettySize=auto;html=1;" parent="1" source="rcFtB1nDnAv8-7WCDxbc-16" target="rcFtB1nDnAv8-7WCDxbc-20" edge="1">
          <mxGeometry relative="1" as="geometry" />
        </mxCell>
        <mxCell id="rcFtB1nDnAv8-7WCDxbc-16" value="删除讲师" style="rhombus;whiteSpace=wrap;html=1;rounded=0;" parent="1" vertex="1">
          <mxGeometry x="570" y="800" width="80" height="80" as="geometry" />
        </mxCell>
        <mxCell id="rcFtB1nDnAv8-7WCDxbc-24" style="edgeStyle=orthogonalEdgeStyle;rounded=0;orthogonalLoop=1;jettySize=auto;html=1;entryX=0.75;entryY=1;entryDx=0;entryDy=0;" parent="1" source="rcFtB1nDnAv8-7WCDxbc-18" target="rcFtB1nDnAv8-7WCDxbc-12" edge="1">
          <mxGeometry relative="1" as="geometry">
            <mxPoint x="470" y="880" as="targetPoint" />
            <Array as="points">
              <mxPoint x="750" y="920" />
              <mxPoint x="496" y="920" />
            </Array>
          </mxGeometry>
        </mxCell>
        <mxCell id="rcFtB1nDnAv8-7WCDxbc-18" value="删除成功" style="whiteSpace=wrap;html=1;rounded=0;" parent="1" vertex="1">
          <mxGeometry x="690" y="810" width="120" height="60" as="geometry" />
        </mxCell>
        <mxCell id="rcFtB1nDnAv8-7WCDxbc-22" style="edgeStyle=orthogonalEdgeStyle;rounded=0;orthogonalLoop=1;jettySize=auto;html=1;entryX=0.75;entryY=0;entryDx=0;entryDy=0;" parent="1" source="rcFtB1nDnAv8-7WCDxbc-20" target="rcFtB1nDnAv8-7WCDxbc-12" edge="1">
          <mxGeometry relative="1" as="geometry" />
        </mxCell>
        <mxCell id="rcFtB1nDnAv8-7WCDxbc-20" value="取消删除" style="whiteSpace=wrap;html=1;rounded=0;" parent="1" vertex="1">
          <mxGeometry x="550" y="700" width="120" height="60" as="geometry" />
        </mxCell>
        <mxCell id="rcFtB1nDnAv8-7WCDxbc-30" value="" style="edgeStyle=orthogonalEdgeStyle;rounded=0;orthogonalLoop=1;jettySize=auto;html=1;" parent="1" source="rcFtB1nDnAv8-7WCDxbc-25" target="rcFtB1nDnAv8-7WCDxbc-29" edge="1">
          <mxGeometry relative="1" as="geometry" />
        </mxCell>
        <mxCell id="rcFtB1nDnAv8-7WCDxbc-25" value="分页/多条件查询" style="whiteSpace=wrap;html=1;rounded=0;" parent="1" vertex="1">
          <mxGeometry x="406" y="630" width="120" height="60" as="geometry" />
        </mxCell>
        <mxCell id="rcFtB1nDnAv8-7WCDxbc-29" value="结束" style="rounded=1;whiteSpace=wrap;html=1;" parent="1" vertex="1">
          <mxGeometry x="406" y="525" width="120" height="60" as="geometry" />
        </mxCell>
        <mxCell id="rcFtB1nDnAv8-7WCDxbc-33" style="edgeStyle=orthogonalEdgeStyle;rounded=0;orthogonalLoop=1;jettySize=auto;html=1;entryX=0.25;entryY=0;entryDx=0;entryDy=0;" parent="1" source="rcFtB1nDnAv8-7WCDxbc-31" target="rcFtB1nDnAv8-7WCDxbc-12" edge="1">
          <mxGeometry relative="1" as="geometry" />
        </mxCell>
        <mxCell id="rcFtB1nDnAv8-7WCDxbc-31" value="添加/修改成功" style="whiteSpace=wrap;html=1;rounded=0;" parent="1" vertex="1">
          <mxGeometry x="130" y="700" width="120" height="60" as="geometry" />
        </mxCell>
        <mxCell id="rcFtB1nDnAv8-7WCDxbc-36" style="edgeStyle=orthogonalEdgeStyle;rounded=0;orthogonalLoop=1;jettySize=auto;html=1;exitX=1;exitY=0.5;exitDx=0;exitDy=0;" parent="1" source="rcFtB1nDnAv8-7WCDxbc-34" edge="1">
          <mxGeometry relative="1" as="geometry">
            <mxPoint x="410" y="840" as="targetPoint" />
          </mxGeometry>
        </mxCell>
        <mxCell id="rcFtB1nDnAv8-7WCDxbc-34" value="取消添加/修改" style="whiteSpace=wrap;html=1;rounded=0;" parent="1" vertex="1">
          <mxGeometry x="260" y="810" width="120" height="60" as="geometry" />
        </mxCell>
        <mxCell id="rcFtB1nDnAv8-7WCDxbc-35" value="否" style="edgeStyle=orthogonalEdgeStyle;rounded=0;orthogonalLoop=1;jettySize=auto;html=1;entryX=0;entryY=0.5;entryDx=0;entryDy=0;" parent="1" source="rcFtB1nDnAv8-7WCDxbc-10" target="rcFtB1nDnAv8-7WCDxbc-34" edge="1">
          <mxGeometry relative="1" as="geometry">
            <mxPoint x="290" y="840" as="sourcePoint" />
            <mxPoint x="250" y="840" as="targetPoint" />
          </mxGeometry>
        </mxCell>
        <mxCell id="rcFtB1nDnAv8-7WCDxbc-41" style="edgeStyle=orthogonalEdgeStyle;rounded=0;orthogonalLoop=1;jettySize=auto;html=1;entryX=0.5;entryY=1;entryDx=0;entryDy=0;" parent="1" source="rcFtB1nDnAv8-7WCDxbc-39" target="rcFtB1nDnAv8-7WCDxbc-6" edge="1">
          <mxGeometry relative="1" as="geometry">
            <mxPoint x="60" y="920" as="targetPoint" />
          </mxGeometry>
        </mxCell>
        <mxCell id="rcFtB1nDnAv8-7WCDxbc-39" value="点击修改讲师" style="whiteSpace=wrap;html=1;rounded=0;" parent="1" vertex="1">
          <mxGeometry x="200" y="890" width="120" height="60" as="geometry" />
        </mxCell>
      </root>
    </mxGraphModel>
  </diagram>
  <diagram id="50eWPIbbXnT_bjzqXAGm" name="course class">
    <mxGraphModel dx="868" dy="426" grid="0" gridSize="10" guides="1" tooltips="1" connect="1" arrows="1" fold="1" page="1" pageScale="1" pageWidth="827" pageHeight="1169" math="0" shadow="0">
      <root>
        <mxCell id="fg5B-UNSQ8R69AJ-qotZ-0" />
        <mxCell id="fg5B-UNSQ8R69AJ-qotZ-1" parent="fg5B-UNSQ8R69AJ-qotZ-0" />
        <mxCell id="Xbypj3B06ExMRh3zjx1p-0" value="开始" style="rounded=1;whiteSpace=wrap;html=1;" parent="fg5B-UNSQ8R69AJ-qotZ-1" vertex="1">
          <mxGeometry x="1" y="525" width="120" height="60" as="geometry" />
        </mxCell>
        <mxCell id="Xbypj3B06ExMRh3zjx1p-1" value="" style="endArrow=classic;html=1;" parent="fg5B-UNSQ8R69AJ-qotZ-1" edge="1">
          <mxGeometry width="50" height="50" relative="1" as="geometry">
            <mxPoint x="60" y="588" as="sourcePoint" />
            <mxPoint x="60" y="700" as="targetPoint" />
          </mxGeometry>
        </mxCell>
        <mxCell id="Xbypj3B06ExMRh3zjx1p-2" value="" style="edgeStyle=orthogonalEdgeStyle;rounded=0;orthogonalLoop=1;jettySize=auto;html=1;" parent="fg5B-UNSQ8R69AJ-qotZ-1" source="Xbypj3B06ExMRh3zjx1p-3" target="Xbypj3B06ExMRh3zjx1p-5" edge="1">
          <mxGeometry relative="1" as="geometry" />
        </mxCell>
        <mxCell id="Xbypj3B06ExMRh3zjx1p-3" value="点击添加课程分类" style="rounded=0;whiteSpace=wrap;html=1;" parent="fg5B-UNSQ8R69AJ-qotZ-1" vertex="1">
          <mxGeometry y="700" width="120" height="60" as="geometry" />
        </mxCell>
        <mxCell id="Xbypj3B06ExMRh3zjx1p-4" value="" style="edgeStyle=orthogonalEdgeStyle;rounded=0;orthogonalLoop=1;jettySize=auto;html=1;entryX=0;entryY=0.5;entryDx=0;entryDy=0;" parent="fg5B-UNSQ8R69AJ-qotZ-1" source="Xbypj3B06ExMRh3zjx1p-5" target="Xbypj3B06ExMRh3zjx1p-29" edge="1">
          <mxGeometry relative="1" as="geometry">
            <mxPoint x="140" y="720" as="targetPoint" />
          </mxGeometry>
        </mxCell>
        <mxCell id="Xbypj3B06ExMRh3zjx1p-5" value="下载文件模板" style="rounded=0;whiteSpace=wrap;html=1;" parent="fg5B-UNSQ8R69AJ-qotZ-1" vertex="1">
          <mxGeometry y="810" width="120" height="60" as="geometry" />
        </mxCell>
        <mxCell id="Xbypj3B06ExMRh3zjx1p-9" value="" style="edgeStyle=orthogonalEdgeStyle;rounded=0;orthogonalLoop=1;jettySize=auto;html=1;" parent="fg5B-UNSQ8R69AJ-qotZ-1" source="Xbypj3B06ExMRh3zjx1p-11" target="Xbypj3B06ExMRh3zjx1p-20" edge="1">
          <mxGeometry relative="1" as="geometry" />
        </mxCell>
        <mxCell id="Xbypj3B06ExMRh3zjx1p-11" value="课程分类列表" style="whiteSpace=wrap;html=1;rounded=0;" parent="fg5B-UNSQ8R69AJ-qotZ-1" vertex="1">
          <mxGeometry x="461" y="810" width="120" height="60" as="geometry" />
        </mxCell>
        <mxCell id="Xbypj3B06ExMRh3zjx1p-19" value="" style="edgeStyle=orthogonalEdgeStyle;rounded=0;orthogonalLoop=1;jettySize=auto;html=1;" parent="fg5B-UNSQ8R69AJ-qotZ-1" source="Xbypj3B06ExMRh3zjx1p-20" target="Xbypj3B06ExMRh3zjx1p-21" edge="1">
          <mxGeometry relative="1" as="geometry" />
        </mxCell>
        <mxCell id="Xbypj3B06ExMRh3zjx1p-20" value="模糊查询" style="whiteSpace=wrap;html=1;rounded=0;" parent="fg5B-UNSQ8R69AJ-qotZ-1" vertex="1">
          <mxGeometry x="461" y="630" width="120" height="60" as="geometry" />
        </mxCell>
        <mxCell id="Xbypj3B06ExMRh3zjx1p-21" value="结束" style="rounded=1;whiteSpace=wrap;html=1;" parent="fg5B-UNSQ8R69AJ-qotZ-1" vertex="1">
          <mxGeometry x="461" y="525" width="120" height="60" as="geometry" />
        </mxCell>
        <mxCell id="Xbypj3B06ExMRh3zjx1p-31" value="" style="edgeStyle=orthogonalEdgeStyle;rounded=0;orthogonalLoop=1;jettySize=auto;html=1;" parent="fg5B-UNSQ8R69AJ-qotZ-1" source="Xbypj3B06ExMRh3zjx1p-29" target="Xbypj3B06ExMRh3zjx1p-30" edge="1">
          <mxGeometry relative="1" as="geometry" />
        </mxCell>
        <mxCell id="Xbypj3B06ExMRh3zjx1p-29" value="编辑分类文件" style="rounded=0;whiteSpace=wrap;html=1;" parent="fg5B-UNSQ8R69AJ-qotZ-1" vertex="1">
          <mxGeometry x="180" y="700" width="120" height="60" as="geometry" />
        </mxCell>
        <mxCell id="Xbypj3B06ExMRh3zjx1p-33" value="" style="edgeStyle=orthogonalEdgeStyle;rounded=0;orthogonalLoop=1;jettySize=auto;html=1;entryX=0;entryY=0.5;entryDx=0;entryDy=0;" parent="fg5B-UNSQ8R69AJ-qotZ-1" source="Xbypj3B06ExMRh3zjx1p-30" target="Xbypj3B06ExMRh3zjx1p-34" edge="1">
          <mxGeometry relative="1" as="geometry">
            <mxPoint x="320" y="730" as="targetPoint" />
          </mxGeometry>
        </mxCell>
        <mxCell id="Xbypj3B06ExMRh3zjx1p-30" value="上传文件" style="whiteSpace=wrap;html=1;rounded=0;" parent="fg5B-UNSQ8R69AJ-qotZ-1" vertex="1">
          <mxGeometry x="180" y="810" width="120" height="60" as="geometry" />
        </mxCell>
        <mxCell id="Xbypj3B06ExMRh3zjx1p-36" style="edgeStyle=orthogonalEdgeStyle;rounded=0;orthogonalLoop=1;jettySize=auto;html=1;" parent="fg5B-UNSQ8R69AJ-qotZ-1" source="Xbypj3B06ExMRh3zjx1p-34" edge="1">
          <mxGeometry relative="1" as="geometry">
            <mxPoint x="460" y="840" as="targetPoint" />
            <Array as="points">
              <mxPoint x="401" y="840" />
            </Array>
          </mxGeometry>
        </mxCell>
        <mxCell id="Xbypj3B06ExMRh3zjx1p-34" value="上传成功" style="rounded=0;whiteSpace=wrap;html=1;" parent="fg5B-UNSQ8R69AJ-qotZ-1" vertex="1">
          <mxGeometry x="341" y="700" width="120" height="60" as="geometry" />
        </mxCell>
      </root>
    </mxGraphModel>
  </diagram>
  <diagram id="sQwjl8XTC-iCGN2Nql1r" name="course">
    <mxGraphModel dx="1021" dy="501" grid="0" gridSize="10" guides="1" tooltips="1" connect="1" arrows="1" fold="1" page="1" pageScale="1" pageWidth="827" pageHeight="1169" math="0" shadow="0">
      <root>
        <mxCell id="sYPzIvVp3rqnLwQWSwXn-0" />
        <mxCell id="sYPzIvVp3rqnLwQWSwXn-1" parent="sYPzIvVp3rqnLwQWSwXn-0" />
        <mxCell id="ES1TiOrC86u8ysvGVSYc-7" style="edgeStyle=orthogonalEdgeStyle;rounded=0;orthogonalLoop=1;jettySize=auto;html=1;exitX=0.5;exitY=1;exitDx=0;exitDy=0;entryX=0.5;entryY=0;entryDx=0;entryDy=0;" parent="sYPzIvVp3rqnLwQWSwXn-1" source="Wzqa_l9AHKyaEWs6Wl3S-0" target="Wzqa_l9AHKyaEWs6Wl3S-3" edge="1">
          <mxGeometry relative="1" as="geometry" />
        </mxCell>
        <mxCell id="Wzqa_l9AHKyaEWs6Wl3S-0" value="开始" style="rounded=1;whiteSpace=wrap;html=1;" parent="sYPzIvVp3rqnLwQWSwXn-1" vertex="1">
          <mxGeometry y="620" width="120" height="60" as="geometry" />
        </mxCell>
        <mxCell id="Wzqa_l9AHKyaEWs6Wl3S-2" value="" style="edgeStyle=orthogonalEdgeStyle;rounded=0;orthogonalLoop=1;jettySize=auto;html=1;" parent="sYPzIvVp3rqnLwQWSwXn-1" source="Wzqa_l9AHKyaEWs6Wl3S-3" target="Wzqa_l9AHKyaEWs6Wl3S-5" edge="1">
          <mxGeometry relative="1" as="geometry" />
        </mxCell>
        <mxCell id="Wzqa_l9AHKyaEWs6Wl3S-3" value="点击添加课程" style="rounded=0;whiteSpace=wrap;html=1;" parent="sYPzIvVp3rqnLwQWSwXn-1" vertex="1">
          <mxGeometry y="700" width="120" height="60" as="geometry" />
        </mxCell>
        <mxCell id="Wzqa_l9AHKyaEWs6Wl3S-4" value="" style="edgeStyle=orthogonalEdgeStyle;rounded=0;orthogonalLoop=1;jettySize=auto;html=1;" parent="sYPzIvVp3rqnLwQWSwXn-1" source="Wzqa_l9AHKyaEWs6Wl3S-5" target="Wzqa_l9AHKyaEWs6Wl3S-7" edge="1">
          <mxGeometry relative="1" as="geometry" />
        </mxCell>
        <mxCell id="Wzqa_l9AHKyaEWs6Wl3S-5" value="编辑基本信息" style="rounded=0;whiteSpace=wrap;html=1;" parent="sYPzIvVp3rqnLwQWSwXn-1" vertex="1">
          <mxGeometry y="810" width="120" height="60" as="geometry" />
        </mxCell>
        <mxCell id="Wzqa_l9AHKyaEWs6Wl3S-30" value="是" style="edgeStyle=orthogonalEdgeStyle;rounded=0;orthogonalLoop=1;jettySize=auto;html=1;" parent="sYPzIvVp3rqnLwQWSwXn-1" source="Wzqa_l9AHKyaEWs6Wl3S-7" target="Wzqa_l9AHKyaEWs6Wl3S-29" edge="1">
          <mxGeometry relative="1" as="geometry" />
        </mxCell>
        <mxCell id="Wzqa_l9AHKyaEWs6Wl3S-40" value="否" style="edgeStyle=orthogonalEdgeStyle;rounded=0;orthogonalLoop=1;jettySize=auto;html=1;" parent="sYPzIvVp3rqnLwQWSwXn-1" source="Wzqa_l9AHKyaEWs6Wl3S-7" target="Wzqa_l9AHKyaEWs6Wl3S-25" edge="1">
          <mxGeometry relative="1" as="geometry" />
        </mxCell>
        <mxCell id="Wzqa_l9AHKyaEWs6Wl3S-7" value="保存" style="rhombus;whiteSpace=wrap;html=1;rounded=0;" parent="sYPzIvVp3rqnLwQWSwXn-1" vertex="1">
          <mxGeometry x="20" y="900" width="80" height="80" as="geometry" />
        </mxCell>
        <mxCell id="Wzqa_l9AHKyaEWs6Wl3S-8" value="" style="edgeStyle=orthogonalEdgeStyle;rounded=0;orthogonalLoop=1;jettySize=auto;html=1;" parent="sYPzIvVp3rqnLwQWSwXn-1" source="Wzqa_l9AHKyaEWs6Wl3S-11" target="Wzqa_l9AHKyaEWs6Wl3S-14" edge="1">
          <mxGeometry relative="1" as="geometry" />
        </mxCell>
        <mxCell id="Wzqa_l9AHKyaEWs6Wl3S-9" value="" style="edgeStyle=orthogonalEdgeStyle;rounded=0;orthogonalLoop=1;jettySize=auto;html=1;" parent="sYPzIvVp3rqnLwQWSwXn-1" source="Wzqa_l9AHKyaEWs6Wl3S-11" target="Wzqa_l9AHKyaEWs6Wl3S-20" edge="1">
          <mxGeometry relative="1" as="geometry" />
        </mxCell>
        <mxCell id="ES1TiOrC86u8ysvGVSYc-2" style="edgeStyle=orthogonalEdgeStyle;rounded=0;orthogonalLoop=1;jettySize=auto;html=1;exitX=0.25;exitY=0;exitDx=0;exitDy=0;entryX=1;entryY=0.5;entryDx=0;entryDy=0;" parent="sYPzIvVp3rqnLwQWSwXn-1" source="Wzqa_l9AHKyaEWs6Wl3S-11" target="ES1TiOrC86u8ysvGVSYc-1" edge="1">
          <mxGeometry relative="1" as="geometry">
            <mxPoint x="180" y="540" as="targetPoint" />
          </mxGeometry>
        </mxCell>
        <mxCell id="ES1TiOrC86u8ysvGVSYc-3" style="edgeStyle=orthogonalEdgeStyle;rounded=0;orthogonalLoop=1;jettySize=auto;html=1;exitX=0;exitY=0.25;exitDx=0;exitDy=0;entryX=0.5;entryY=1;entryDx=0;entryDy=0;" parent="sYPzIvVp3rqnLwQWSwXn-1" source="Wzqa_l9AHKyaEWs6Wl3S-11" target="ES1TiOrC86u8ysvGVSYc-0" edge="1">
          <mxGeometry relative="1" as="geometry">
            <Array as="points">
              <mxPoint x="580" y="780" />
              <mxPoint x="194" y="780" />
            </Array>
          </mxGeometry>
        </mxCell>
        <mxCell id="Wzqa_l9AHKyaEWs6Wl3S-11" value="课程列表" style="whiteSpace=wrap;html=1;rounded=0;" parent="sYPzIvVp3rqnLwQWSwXn-1" vertex="1">
          <mxGeometry x="580" y="810" width="120" height="60" as="geometry" />
        </mxCell>
        <mxCell id="Wzqa_l9AHKyaEWs6Wl3S-12" value="是" style="edgeStyle=orthogonalEdgeStyle;rounded=0;orthogonalLoop=1;jettySize=auto;html=1;" parent="sYPzIvVp3rqnLwQWSwXn-1" source="Wzqa_l9AHKyaEWs6Wl3S-14" target="Wzqa_l9AHKyaEWs6Wl3S-16" edge="1">
          <mxGeometry relative="1" as="geometry" />
        </mxCell>
        <mxCell id="Wzqa_l9AHKyaEWs6Wl3S-13" value="否" style="edgeStyle=orthogonalEdgeStyle;rounded=0;orthogonalLoop=1;jettySize=auto;html=1;" parent="sYPzIvVp3rqnLwQWSwXn-1" source="Wzqa_l9AHKyaEWs6Wl3S-14" target="Wzqa_l9AHKyaEWs6Wl3S-18" edge="1">
          <mxGeometry relative="1" as="geometry" />
        </mxCell>
        <mxCell id="Wzqa_l9AHKyaEWs6Wl3S-14" value="删除课程" style="rhombus;whiteSpace=wrap;html=1;rounded=0;" parent="sYPzIvVp3rqnLwQWSwXn-1" vertex="1">
          <mxGeometry x="730" y="800" width="80" height="80" as="geometry" />
        </mxCell>
        <mxCell id="ES1TiOrC86u8ysvGVSYc-6" style="edgeStyle=orthogonalEdgeStyle;rounded=0;orthogonalLoop=1;jettySize=auto;html=1;entryX=0.5;entryY=1;entryDx=0;entryDy=0;" parent="sYPzIvVp3rqnLwQWSwXn-1" source="Wzqa_l9AHKyaEWs6Wl3S-16" target="Wzqa_l9AHKyaEWs6Wl3S-11" edge="1">
          <mxGeometry relative="1" as="geometry" />
        </mxCell>
        <mxCell id="Wzqa_l9AHKyaEWs6Wl3S-16" value="删除成功" style="whiteSpace=wrap;html=1;rounded=0;" parent="sYPzIvVp3rqnLwQWSwXn-1" vertex="1">
          <mxGeometry x="710" y="930" width="120" height="60" as="geometry" />
        </mxCell>
        <mxCell id="Wzqa_l9AHKyaEWs6Wl3S-17" style="edgeStyle=orthogonalEdgeStyle;rounded=0;orthogonalLoop=1;jettySize=auto;html=1;entryX=0.75;entryY=0;entryDx=0;entryDy=0;" parent="sYPzIvVp3rqnLwQWSwXn-1" source="Wzqa_l9AHKyaEWs6Wl3S-18" target="Wzqa_l9AHKyaEWs6Wl3S-11" edge="1">
          <mxGeometry relative="1" as="geometry" />
        </mxCell>
        <mxCell id="Wzqa_l9AHKyaEWs6Wl3S-18" value="取消删除" style="whiteSpace=wrap;html=1;rounded=0;" parent="sYPzIvVp3rqnLwQWSwXn-1" vertex="1">
          <mxGeometry x="710" y="700" width="120" height="60" as="geometry" />
        </mxCell>
        <mxCell id="Wzqa_l9AHKyaEWs6Wl3S-19" value="" style="edgeStyle=orthogonalEdgeStyle;rounded=0;orthogonalLoop=1;jettySize=auto;html=1;" parent="sYPzIvVp3rqnLwQWSwXn-1" source="Wzqa_l9AHKyaEWs6Wl3S-20" target="Wzqa_l9AHKyaEWs6Wl3S-21" edge="1">
          <mxGeometry relative="1" as="geometry" />
        </mxCell>
        <mxCell id="Wzqa_l9AHKyaEWs6Wl3S-20" value="分页/多条件查询" style="whiteSpace=wrap;html=1;rounded=0;" parent="sYPzIvVp3rqnLwQWSwXn-1" vertex="1">
          <mxGeometry x="580" y="630" width="120" height="60" as="geometry" />
        </mxCell>
        <mxCell id="Wzqa_l9AHKyaEWs6Wl3S-21" value="结束" style="rounded=1;whiteSpace=wrap;html=1;" parent="sYPzIvVp3rqnLwQWSwXn-1" vertex="1">
          <mxGeometry x="390" y="630" width="120" height="60" as="geometry" />
        </mxCell>
        <mxCell id="Wzqa_l9AHKyaEWs6Wl3S-46" style="edgeStyle=orthogonalEdgeStyle;rounded=0;orthogonalLoop=1;jettySize=auto;html=1;" parent="sYPzIvVp3rqnLwQWSwXn-1" source="Wzqa_l9AHKyaEWs6Wl3S-25" edge="1">
          <mxGeometry relative="1" as="geometry">
            <mxPoint x="290" y="1100" as="targetPoint" />
            <Array as="points">
              <mxPoint x="60" y="1100" />
              <mxPoint x="290" y="1100" />
            </Array>
          </mxGeometry>
        </mxCell>
        <mxCell id="Wzqa_l9AHKyaEWs6Wl3S-25" value="取消添加/修改&lt;br&gt;基本信息" style="whiteSpace=wrap;html=1;rounded=0;" parent="sYPzIvVp3rqnLwQWSwXn-1" vertex="1">
          <mxGeometry y="1020" width="120" height="60" as="geometry" />
        </mxCell>
        <mxCell id="Wzqa_l9AHKyaEWs6Wl3S-32" value="" style="edgeStyle=orthogonalEdgeStyle;rounded=0;orthogonalLoop=1;jettySize=auto;html=1;" parent="sYPzIvVp3rqnLwQWSwXn-1" source="Wzqa_l9AHKyaEWs6Wl3S-29" target="Wzqa_l9AHKyaEWs6Wl3S-31" edge="1">
          <mxGeometry relative="1" as="geometry" />
        </mxCell>
        <mxCell id="Wzqa_l9AHKyaEWs6Wl3S-50" value="" style="edgeStyle=orthogonalEdgeStyle;rounded=0;orthogonalLoop=1;jettySize=auto;html=1;" parent="sYPzIvVp3rqnLwQWSwXn-1" source="Wzqa_l9AHKyaEWs6Wl3S-29" target="Wzqa_l9AHKyaEWs6Wl3S-48" edge="1">
          <mxGeometry relative="1" as="geometry" />
        </mxCell>
        <mxCell id="Wzqa_l9AHKyaEWs6Wl3S-29" value="编辑课程大纲" style="rounded=0;whiteSpace=wrap;html=1;" parent="sYPzIvVp3rqnLwQWSwXn-1" vertex="1">
          <mxGeometry x="140" y="910" width="80" height="60" as="geometry" />
        </mxCell>
        <mxCell id="Wzqa_l9AHKyaEWs6Wl3S-34" value="是" style="edgeStyle=orthogonalEdgeStyle;rounded=0;orthogonalLoop=1;jettySize=auto;html=1;" parent="sYPzIvVp3rqnLwQWSwXn-1" source="Wzqa_l9AHKyaEWs6Wl3S-31" target="Wzqa_l9AHKyaEWs6Wl3S-33" edge="1">
          <mxGeometry relative="1" as="geometry" />
        </mxCell>
        <mxCell id="Wzqa_l9AHKyaEWs6Wl3S-42" value="否" style="edgeStyle=orthogonalEdgeStyle;rounded=0;orthogonalLoop=1;jettySize=auto;html=1;" parent="sYPzIvVp3rqnLwQWSwXn-1" source="Wzqa_l9AHKyaEWs6Wl3S-31" target="Wzqa_l9AHKyaEWs6Wl3S-35" edge="1">
          <mxGeometry relative="1" as="geometry" />
        </mxCell>
        <mxCell id="Wzqa_l9AHKyaEWs6Wl3S-31" value="保存" style="rhombus;whiteSpace=wrap;html=1;rounded=0;" parent="sYPzIvVp3rqnLwQWSwXn-1" vertex="1">
          <mxGeometry x="250" y="900" width="80" height="80" as="geometry" />
        </mxCell>
        <mxCell id="Wzqa_l9AHKyaEWs6Wl3S-51" value="" style="edgeStyle=orthogonalEdgeStyle;rounded=0;orthogonalLoop=1;jettySize=auto;html=1;" parent="sYPzIvVp3rqnLwQWSwXn-1" source="Wzqa_l9AHKyaEWs6Wl3S-33" target="Wzqa_l9AHKyaEWs6Wl3S-47" edge="1">
          <mxGeometry relative="1" as="geometry" />
        </mxCell>
        <mxCell id="Wzqa_l9AHKyaEWs6Wl3S-53" style="edgeStyle=orthogonalEdgeStyle;rounded=0;orthogonalLoop=1;jettySize=auto;html=1;exitX=1;exitY=0.5;exitDx=0;exitDy=0;entryX=0;entryY=0.5;entryDx=0;entryDy=0;" parent="sYPzIvVp3rqnLwQWSwXn-1" source="Wzqa_l9AHKyaEWs6Wl3S-33" target="Wzqa_l9AHKyaEWs6Wl3S-38" edge="1">
          <mxGeometry relative="1" as="geometry" />
        </mxCell>
        <mxCell id="Wzqa_l9AHKyaEWs6Wl3S-33" value="课程发布" style="rounded=0;whiteSpace=wrap;html=1;" parent="sYPzIvVp3rqnLwQWSwXn-1" vertex="1">
          <mxGeometry x="370" y="910" width="66" height="60" as="geometry" />
        </mxCell>
        <mxCell id="Wzqa_l9AHKyaEWs6Wl3S-45" style="edgeStyle=orthogonalEdgeStyle;rounded=0;orthogonalLoop=1;jettySize=auto;html=1;exitX=0.5;exitY=1;exitDx=0;exitDy=0;" parent="sYPzIvVp3rqnLwQWSwXn-1" source="Wzqa_l9AHKyaEWs6Wl3S-35" edge="1">
          <mxGeometry relative="1" as="geometry">
            <mxPoint x="510" y="1100" as="targetPoint" />
            <Array as="points">
              <mxPoint x="290" y="1100" />
            </Array>
          </mxGeometry>
        </mxCell>
        <mxCell id="Wzqa_l9AHKyaEWs6Wl3S-35" value="取消添加/修改&lt;br&gt;课程大纲" style="whiteSpace=wrap;html=1;rounded=0;" parent="sYPzIvVp3rqnLwQWSwXn-1" vertex="1">
          <mxGeometry x="230" y="1020" width="120" height="60" as="geometry" />
        </mxCell>
        <mxCell id="Wzqa_l9AHKyaEWs6Wl3S-44" style="edgeStyle=orthogonalEdgeStyle;rounded=0;orthogonalLoop=1;jettySize=auto;html=1;entryX=0.25;entryY=1;entryDx=0;entryDy=0;" parent="sYPzIvVp3rqnLwQWSwXn-1" source="Wzqa_l9AHKyaEWs6Wl3S-37" target="Wzqa_l9AHKyaEWs6Wl3S-11" edge="1">
          <mxGeometry relative="1" as="geometry">
            <Array as="points">
              <mxPoint x="507" y="1100" />
              <mxPoint x="610" y="1100" />
            </Array>
          </mxGeometry>
        </mxCell>
        <mxCell id="Wzqa_l9AHKyaEWs6Wl3S-37" value="取消发布" style="whiteSpace=wrap;html=1;rounded=0;" parent="sYPzIvVp3rqnLwQWSwXn-1" vertex="1">
          <mxGeometry x="447" y="1020" width="120" height="60" as="geometry" />
        </mxCell>
        <mxCell id="Wzqa_l9AHKyaEWs6Wl3S-43" value="否" style="edgeStyle=orthogonalEdgeStyle;rounded=0;orthogonalLoop=1;jettySize=auto;html=1;" parent="sYPzIvVp3rqnLwQWSwXn-1" source="Wzqa_l9AHKyaEWs6Wl3S-38" target="Wzqa_l9AHKyaEWs6Wl3S-37" edge="1">
          <mxGeometry relative="1" as="geometry" />
        </mxCell>
        <mxCell id="Wzqa_l9AHKyaEWs6Wl3S-56" value="" style="edgeStyle=orthogonalEdgeStyle;rounded=0;orthogonalLoop=1;jettySize=auto;html=1;" parent="sYPzIvVp3rqnLwQWSwXn-1" source="Wzqa_l9AHKyaEWs6Wl3S-38" target="Wzqa_l9AHKyaEWs6Wl3S-55" edge="1">
          <mxGeometry relative="1" as="geometry" />
        </mxCell>
        <mxCell id="Wzqa_l9AHKyaEWs6Wl3S-38" value="发布" style="rhombus;whiteSpace=wrap;html=1;rounded=0;" parent="sYPzIvVp3rqnLwQWSwXn-1" vertex="1">
          <mxGeometry x="467" y="900" width="80" height="80" as="geometry" />
        </mxCell>
        <mxCell id="Wzqa_l9AHKyaEWs6Wl3S-52" style="edgeStyle=orthogonalEdgeStyle;rounded=0;orthogonalLoop=1;jettySize=auto;html=1;entryX=1;entryY=0.25;entryDx=0;entryDy=0;" parent="sYPzIvVp3rqnLwQWSwXn-1" source="Wzqa_l9AHKyaEWs6Wl3S-47" target="Wzqa_l9AHKyaEWs6Wl3S-29" edge="1">
          <mxGeometry relative="1" as="geometry">
            <mxPoint x="240" y="930" as="targetPoint" />
            <Array as="points">
              <mxPoint x="250" y="840" />
              <mxPoint x="250" y="925" />
            </Array>
          </mxGeometry>
        </mxCell>
        <mxCell id="Wzqa_l9AHKyaEWs6Wl3S-47" value="上一步" style="rounded=0;whiteSpace=wrap;html=1;" parent="sYPzIvVp3rqnLwQWSwXn-1" vertex="1">
          <mxGeometry x="370" y="810" width="66" height="60" as="geometry" />
        </mxCell>
        <mxCell id="Wzqa_l9AHKyaEWs6Wl3S-49" style="edgeStyle=orthogonalEdgeStyle;rounded=0;orthogonalLoop=1;jettySize=auto;html=1;exitX=0;exitY=0.5;exitDx=0;exitDy=0;entryX=1;entryY=0.5;entryDx=0;entryDy=0;" parent="sYPzIvVp3rqnLwQWSwXn-1" source="Wzqa_l9AHKyaEWs6Wl3S-48" target="Wzqa_l9AHKyaEWs6Wl3S-5" edge="1">
          <mxGeometry relative="1" as="geometry" />
        </mxCell>
        <mxCell id="Wzqa_l9AHKyaEWs6Wl3S-48" value="上一步" style="rounded=0;whiteSpace=wrap;html=1;" parent="sYPzIvVp3rqnLwQWSwXn-1" vertex="1">
          <mxGeometry x="140" y="810" width="80" height="60" as="geometry" />
        </mxCell>
        <mxCell id="Wzqa_l9AHKyaEWs6Wl3S-57" value="" style="edgeStyle=orthogonalEdgeStyle;rounded=0;orthogonalLoop=1;jettySize=auto;html=1;" parent="sYPzIvVp3rqnLwQWSwXn-1" source="Wzqa_l9AHKyaEWs6Wl3S-55" target="Wzqa_l9AHKyaEWs6Wl3S-11" edge="1">
          <mxGeometry relative="1" as="geometry" />
        </mxCell>
        <mxCell id="Wzqa_l9AHKyaEWs6Wl3S-55" value="发布成功" style="whiteSpace=wrap;html=1;rounded=0;" parent="sYPzIvVp3rqnLwQWSwXn-1" vertex="1">
          <mxGeometry x="470.5" y="810" width="73" height="60" as="geometry" />
        </mxCell>
        <mxCell id="ES1TiOrC86u8ysvGVSYc-4" style="edgeStyle=orthogonalEdgeStyle;rounded=0;orthogonalLoop=1;jettySize=auto;html=1;exitX=0.25;exitY=1;exitDx=0;exitDy=0;entryX=0.75;entryY=0;entryDx=0;entryDy=0;" parent="sYPzIvVp3rqnLwQWSwXn-1" source="ES1TiOrC86u8ysvGVSYc-0" target="Wzqa_l9AHKyaEWs6Wl3S-5" edge="1">
          <mxGeometry relative="1" as="geometry" />
        </mxCell>
        <mxCell id="ES1TiOrC86u8ysvGVSYc-0" value="点击编辑&lt;br&gt;课程基本信息" style="whiteSpace=wrap;html=1;rounded=0;" parent="sYPzIvVp3rqnLwQWSwXn-1" vertex="1">
          <mxGeometry x="147" y="700" width="93" height="60" as="geometry" />
        </mxCell>
        <mxCell id="ES1TiOrC86u8ysvGVSYc-5" style="edgeStyle=orthogonalEdgeStyle;rounded=0;orthogonalLoop=1;jettySize=auto;html=1;" parent="sYPzIvVp3rqnLwQWSwXn-1" source="ES1TiOrC86u8ysvGVSYc-1" edge="1">
          <mxGeometry relative="1" as="geometry">
            <mxPoint x="250" y="840" as="targetPoint" />
          </mxGeometry>
        </mxCell>
        <mxCell id="ES1TiOrC86u8ysvGVSYc-1" value="点击编辑&lt;br&gt;课程大纲" style="whiteSpace=wrap;html=1;rounded=0;" parent="sYPzIvVp3rqnLwQWSwXn-1" vertex="1">
          <mxGeometry x="330" y="700" width="93" height="60" as="geometry" />
        </mxCell>
      </root>
    </mxGraphModel>
  </diagram>
  <diagram id="aq1qLjs_GAr8HjFeDlVH" name="statistic">
    <mxGraphModel dx="868" dy="426" grid="0" gridSize="10" guides="1" tooltips="1" connect="1" arrows="1" fold="1" page="1" pageScale="1" pageWidth="827" pageHeight="1169" math="0" shadow="0">
      <root>
        <mxCell id="u_j0McgdN7RUVTYmdIIV-0" />
        <mxCell id="u_j0McgdN7RUVTYmdIIV-1" parent="u_j0McgdN7RUVTYmdIIV-0" />
        <mxCell id="mRng0BfDveSGGa4OPByb-1" value="" style="edgeStyle=orthogonalEdgeStyle;rounded=0;orthogonalLoop=1;jettySize=auto;html=1;" parent="u_j0McgdN7RUVTYmdIIV-1" source="gT6idGy5ps9zKuxMnwaL-0" target="mRng0BfDveSGGa4OPByb-0" edge="1">
          <mxGeometry relative="1" as="geometry" />
        </mxCell>
        <mxCell id="gT6idGy5ps9zKuxMnwaL-0" value="开始" style="rounded=1;whiteSpace=wrap;html=1;" parent="u_j0McgdN7RUVTYmdIIV-1" vertex="1">
          <mxGeometry x="20" y="520" width="120" height="60" as="geometry" />
        </mxCell>
        <mxCell id="mRng0BfDveSGGa4OPByb-3" value="" style="edgeStyle=orthogonalEdgeStyle;rounded=0;orthogonalLoop=1;jettySize=auto;html=1;entryX=0;entryY=0.5;entryDx=0;entryDy=0;" parent="u_j0McgdN7RUVTYmdIIV-1" source="mRng0BfDveSGGa4OPByb-0" target="SxuJ4l3ldSeC42mpLFyL-0" edge="1">
          <mxGeometry relative="1" as="geometry" />
        </mxCell>
        <mxCell id="mRng0BfDveSGGa4OPByb-0" value="统计分析" style="rounded=0;whiteSpace=wrap;html=1;" parent="u_j0McgdN7RUVTYmdIIV-1" vertex="1">
          <mxGeometry x="20" y="610" width="120" height="60" as="geometry" />
        </mxCell>
        <mxCell id="mRng0BfDveSGGa4OPByb-11" value="" style="edgeStyle=orthogonalEdgeStyle;rounded=0;orthogonalLoop=1;jettySize=auto;html=1;" parent="u_j0McgdN7RUVTYmdIIV-1" source="mRng0BfDveSGGa4OPByb-6" target="mRng0BfDveSGGa4OPByb-10" edge="1">
          <mxGeometry relative="1" as="geometry" />
        </mxCell>
        <mxCell id="mRng0BfDveSGGa4OPByb-6" value="显示图表" style="whiteSpace=wrap;html=1;rounded=0;" parent="u_j0McgdN7RUVTYmdIIV-1" vertex="1">
          <mxGeometry x="410" y="520" width="120" height="60" as="geometry" />
        </mxCell>
        <mxCell id="mRng0BfDveSGGa4OPByb-10" value="结束" style="rounded=1;whiteSpace=wrap;html=1;" parent="u_j0McgdN7RUVTYmdIIV-1" vertex="1">
          <mxGeometry x="210" y="520" width="120" height="60" as="geometry" />
        </mxCell>
        <mxCell id="SxuJ4l3ldSeC42mpLFyL-1" value="否" style="edgeStyle=orthogonalEdgeStyle;rounded=0;orthogonalLoop=1;jettySize=auto;html=1;entryX=0.417;entryY=1;entryDx=0;entryDy=0;entryPerimeter=0;" parent="u_j0McgdN7RUVTYmdIIV-1" source="SxuJ4l3ldSeC42mpLFyL-0" target="mRng0BfDveSGGa4OPByb-0" edge="1">
          <mxGeometry relative="1" as="geometry">
            <Array as="points">
              <mxPoint x="210" y="700" />
              <mxPoint x="70" y="700" />
            </Array>
          </mxGeometry>
        </mxCell>
        <mxCell id="SxuJ4l3ldSeC42mpLFyL-2" value="是" style="edgeStyle=orthogonalEdgeStyle;rounded=0;orthogonalLoop=1;jettySize=auto;html=1;entryX=0;entryY=0.5;entryDx=0;entryDy=0;" parent="u_j0McgdN7RUVTYmdIIV-1" source="SxuJ4l3ldSeC42mpLFyL-0" target="SxuJ4l3ldSeC42mpLFyL-3" edge="1">
          <mxGeometry relative="1" as="geometry">
            <mxPoint x="300" y="640" as="targetPoint" />
          </mxGeometry>
        </mxCell>
        <mxCell id="SxuJ4l3ldSeC42mpLFyL-0" value="&lt;span&gt;生成数据&lt;/span&gt;" style="rhombus;whiteSpace=wrap;html=1;" parent="u_j0McgdN7RUVTYmdIIV-1" vertex="1">
          <mxGeometry x="170" y="600" width="80" height="80" as="geometry" />
        </mxCell>
        <mxCell id="SxuJ4l3ldSeC42mpLFyL-7" value="是" style="edgeStyle=orthogonalEdgeStyle;rounded=0;orthogonalLoop=1;jettySize=auto;html=1;" parent="u_j0McgdN7RUVTYmdIIV-1" source="SxuJ4l3ldSeC42mpLFyL-3" target="SxuJ4l3ldSeC42mpLFyL-6" edge="1">
          <mxGeometry relative="1" as="geometry" />
        </mxCell>
        <mxCell id="SxuJ4l3ldSeC42mpLFyL-8" value="否" style="edgeStyle=orthogonalEdgeStyle;rounded=0;orthogonalLoop=1;jettySize=auto;html=1;exitX=0.5;exitY=1;exitDx=0;exitDy=0;" parent="u_j0McgdN7RUVTYmdIIV-1" source="SxuJ4l3ldSeC42mpLFyL-3" edge="1">
          <mxGeometry relative="1" as="geometry">
            <mxPoint x="210" y="700" as="targetPoint" />
            <Array as="points">
              <mxPoint x="342" y="700" />
            </Array>
          </mxGeometry>
        </mxCell>
        <mxCell id="SxuJ4l3ldSeC42mpLFyL-3" value="&lt;span&gt;选择统计类型&lt;/span&gt;" style="rhombus;whiteSpace=wrap;html=1;" parent="u_j0McgdN7RUVTYmdIIV-1" vertex="1">
          <mxGeometry x="302" y="600" width="80" height="80" as="geometry" />
        </mxCell>
        <mxCell id="SxuJ4l3ldSeC42mpLFyL-9" value="否" style="edgeStyle=orthogonalEdgeStyle;rounded=0;orthogonalLoop=1;jettySize=auto;html=1;exitX=0.5;exitY=1;exitDx=0;exitDy=0;" parent="u_j0McgdN7RUVTYmdIIV-1" source="SxuJ4l3ldSeC42mpLFyL-6" edge="1">
          <mxGeometry relative="1" as="geometry">
            <mxPoint x="340" y="700" as="targetPoint" />
            <Array as="points">
              <mxPoint x="470" y="700" />
            </Array>
          </mxGeometry>
        </mxCell>
        <mxCell id="PTzHzE-pbsIC0TvrSZRb-0" value="是" style="edgeStyle=orthogonalEdgeStyle;rounded=0;orthogonalLoop=1;jettySize=auto;html=1;exitX=1;exitY=0.5;exitDx=0;exitDy=0;entryX=1;entryY=0.5;entryDx=0;entryDy=0;" parent="u_j0McgdN7RUVTYmdIIV-1" source="SxuJ4l3ldSeC42mpLFyL-6" target="mRng0BfDveSGGa4OPByb-6" edge="1">
          <mxGeometry relative="1" as="geometry">
            <Array as="points">
              <mxPoint x="550" y="640" />
              <mxPoint x="550" y="550" />
            </Array>
          </mxGeometry>
        </mxCell>
        <mxCell id="SxuJ4l3ldSeC42mpLFyL-6" value="&lt;span&gt;选择起始日期&lt;/span&gt;" style="rhombus;whiteSpace=wrap;html=1;" parent="u_j0McgdN7RUVTYmdIIV-1" vertex="1">
          <mxGeometry x="430" y="600" width="80" height="80" as="geometry" />
        </mxCell>
      </root>
    </mxGraphModel>
  </diagram>
  <diagram id="DOZfAmChZCszvzT5e3yI" name="order">
    <mxGraphModel dx="868" dy="426" grid="0" gridSize="10" guides="1" tooltips="1" connect="1" arrows="1" fold="1" page="1" pageScale="1" pageWidth="827" pageHeight="1169" math="0" shadow="0">
      <root>
        <mxCell id="0WTrZ2Y-P_tG7Aq3c7rC-0" />
        <mxCell id="0WTrZ2Y-P_tG7Aq3c7rC-1" parent="0WTrZ2Y-P_tG7Aq3c7rC-0" />
        <mxCell id="lVsqQ0HCDYpxcVAt53lG-2" value="" style="edgeStyle=orthogonalEdgeStyle;rounded=0;orthogonalLoop=1;jettySize=auto;html=1;" parent="0WTrZ2Y-P_tG7Aq3c7rC-1" source="T34QOinPIZerN0piphi5-0" target="lVsqQ0HCDYpxcVAt53lG-0" edge="1">
          <mxGeometry relative="1" as="geometry" />
        </mxCell>
        <mxCell id="T34QOinPIZerN0piphi5-0" value="开始" style="rounded=1;whiteSpace=wrap;html=1;" parent="0WTrZ2Y-P_tG7Aq3c7rC-1" vertex="1">
          <mxGeometry x="10" y="230" width="120" height="60" as="geometry" />
        </mxCell>
        <mxCell id="lVsqQ0HCDYpxcVAt53lG-3" value="" style="edgeStyle=orthogonalEdgeStyle;rounded=0;orthogonalLoop=1;jettySize=auto;html=1;" parent="0WTrZ2Y-P_tG7Aq3c7rC-1" source="lVsqQ0HCDYpxcVAt53lG-0" target="lVsqQ0HCDYpxcVAt53lG-1" edge="1">
          <mxGeometry relative="1" as="geometry" />
        </mxCell>
        <mxCell id="lVsqQ0HCDYpxcVAt53lG-0" value="多条件查询" style="rounded=0;whiteSpace=wrap;html=1;" parent="0WTrZ2Y-P_tG7Aq3c7rC-1" vertex="1">
          <mxGeometry x="180" y="230" width="120" height="60" as="geometry" />
        </mxCell>
        <mxCell id="tzhezB29_jtE1YYvn5OU-0" value="" style="edgeStyle=orthogonalEdgeStyle;rounded=0;orthogonalLoop=1;jettySize=auto;html=1;" parent="0WTrZ2Y-P_tG7Aq3c7rC-1" source="lVsqQ0HCDYpxcVAt53lG-1" target="lVsqQ0HCDYpxcVAt53lG-4" edge="1">
          <mxGeometry relative="1" as="geometry" />
        </mxCell>
        <mxCell id="lVsqQ0HCDYpxcVAt53lG-1" value="分页查询" style="rounded=0;whiteSpace=wrap;html=1;" parent="0WTrZ2Y-P_tG7Aq3c7rC-1" vertex="1">
          <mxGeometry x="340" y="230" width="120" height="60" as="geometry" />
        </mxCell>
        <mxCell id="lVsqQ0HCDYpxcVAt53lG-4" value="结束" style="rounded=1;whiteSpace=wrap;html=1;" parent="0WTrZ2Y-P_tG7Aq3c7rC-1" vertex="1">
          <mxGeometry x="340" y="320" width="120" height="60" as="geometry" />
        </mxCell>
        <mxCell id="dihqd3rBwovCmkr5srQV-0" value="" style="edgeStyle=orthogonalEdgeStyle;rounded=0;orthogonalLoop=1;jettySize=auto;html=1;" parent="0WTrZ2Y-P_tG7Aq3c7rC-1" source="dihqd3rBwovCmkr5srQV-1" target="dihqd3rBwovCmkr5srQV-3" edge="1">
          <mxGeometry relative="1" as="geometry" />
        </mxCell>
        <mxCell id="dihqd3rBwovCmkr5srQV-1" value="开始" style="rounded=1;whiteSpace=wrap;html=1;" parent="0WTrZ2Y-P_tG7Aq3c7rC-1" vertex="1">
          <mxGeometry x="59" y="446" width="120" height="60" as="geometry" />
        </mxCell>
        <mxCell id="dihqd3rBwovCmkr5srQV-2" value="" style="edgeStyle=orthogonalEdgeStyle;rounded=0;orthogonalLoop=1;jettySize=auto;html=1;entryX=0;entryY=0.5;entryDx=0;entryDy=0;" parent="0WTrZ2Y-P_tG7Aq3c7rC-1" source="dihqd3rBwovCmkr5srQV-3" target="dihqd3rBwovCmkr5srQV-10" edge="1">
          <mxGeometry relative="1" as="geometry" />
        </mxCell>
        <mxCell id="dihqd3rBwovCmkr5srQV-3" value="订单管理" style="rounded=0;whiteSpace=wrap;html=1;" parent="0WTrZ2Y-P_tG7Aq3c7rC-1" vertex="1">
          <mxGeometry x="59" y="536" width="120" height="60" as="geometry" />
        </mxCell>
        <mxCell id="dihqd3rBwovCmkr5srQV-4" value="" style="edgeStyle=orthogonalEdgeStyle;rounded=0;orthogonalLoop=1;jettySize=auto;html=1;" parent="0WTrZ2Y-P_tG7Aq3c7rC-1" source="dihqd3rBwovCmkr5srQV-5" target="dihqd3rBwovCmkr5srQV-7" edge="1">
          <mxGeometry relative="1" as="geometry" />
        </mxCell>
        <mxCell id="dihqd3rBwovCmkr5srQV-5" value="显示订单列表" style="whiteSpace=wrap;html=1;rounded=0;" parent="0WTrZ2Y-P_tG7Aq3c7rC-1" vertex="1">
          <mxGeometry x="449" y="446" width="120" height="60" as="geometry" />
        </mxCell>
        <mxCell id="dihqd3rBwovCmkr5srQV-7" value="结束" style="rounded=1;whiteSpace=wrap;html=1;" parent="0WTrZ2Y-P_tG7Aq3c7rC-1" vertex="1">
          <mxGeometry x="249" y="446" width="120" height="60" as="geometry" />
        </mxCell>
        <mxCell id="dihqd3rBwovCmkr5srQV-8" value="否" style="edgeStyle=orthogonalEdgeStyle;rounded=0;orthogonalLoop=1;jettySize=auto;html=1;entryX=0.417;entryY=1;entryDx=0;entryDy=0;entryPerimeter=0;" parent="0WTrZ2Y-P_tG7Aq3c7rC-1" source="dihqd3rBwovCmkr5srQV-10" target="dihqd3rBwovCmkr5srQV-3" edge="1">
          <mxGeometry relative="1" as="geometry">
            <Array as="points">
              <mxPoint x="309" y="626" />
              <mxPoint x="109" y="626" />
            </Array>
          </mxGeometry>
        </mxCell>
        <mxCell id="dihqd3rBwovCmkr5srQV-9" value="是" style="edgeStyle=orthogonalEdgeStyle;rounded=0;orthogonalLoop=1;jettySize=auto;html=1;entryX=0;entryY=0.5;entryDx=0;entryDy=0;" parent="0WTrZ2Y-P_tG7Aq3c7rC-1" source="dihqd3rBwovCmkr5srQV-10" target="dihqd3rBwovCmkr5srQV-13" edge="1">
          <mxGeometry relative="1" as="geometry">
            <mxPoint x="339" y="566" as="targetPoint" />
          </mxGeometry>
        </mxCell>
        <mxCell id="dihqd3rBwovCmkr5srQV-10" value="&lt;span&gt;多条件查询&lt;/span&gt;" style="rhombus;whiteSpace=wrap;html=1;" parent="0WTrZ2Y-P_tG7Aq3c7rC-1" vertex="1">
          <mxGeometry x="269" y="526" width="80" height="80" as="geometry" />
        </mxCell>
        <mxCell id="mV4vUR4_I0flYXSKFDfY-0" value="是" style="edgeStyle=orthogonalEdgeStyle;rounded=0;orthogonalLoop=1;jettySize=auto;html=1;exitX=1;exitY=0.5;exitDx=0;exitDy=0;entryX=1;entryY=0.5;entryDx=0;entryDy=0;" parent="0WTrZ2Y-P_tG7Aq3c7rC-1" source="dihqd3rBwovCmkr5srQV-13" target="dihqd3rBwovCmkr5srQV-5" edge="1">
          <mxGeometry relative="1" as="geometry">
            <mxPoint x="599" y="476" as="targetPoint" />
            <Array as="points">
              <mxPoint x="589" y="566" />
              <mxPoint x="589" y="476" />
            </Array>
          </mxGeometry>
        </mxCell>
        <mxCell id="dihqd3rBwovCmkr5srQV-13" value="&lt;span&gt;分页查询&lt;/span&gt;" style="rhombus;whiteSpace=wrap;html=1;" parent="0WTrZ2Y-P_tG7Aq3c7rC-1" vertex="1">
          <mxGeometry x="469" y="526" width="80" height="80" as="geometry" />
        </mxCell>
        <mxCell id="dihqd3rBwovCmkr5srQV-14" value="否" style="edgeStyle=orthogonalEdgeStyle;rounded=0;orthogonalLoop=1;jettySize=auto;html=1;exitX=0.5;exitY=1;exitDx=0;exitDy=0;" parent="0WTrZ2Y-P_tG7Aq3c7rC-1" source="dihqd3rBwovCmkr5srQV-13" edge="1">
          <mxGeometry relative="1" as="geometry">
            <mxPoint x="309" y="626" as="targetPoint" />
            <Array as="points">
              <mxPoint x="509" y="626" />
            </Array>
            <mxPoint x="439" y="606" as="sourcePoint" />
          </mxGeometry>
        </mxCell>
      </root>
    </mxGraphModel>
  </diagram>
  <diagram id="97XsswU_-DgeocITO2Pj" name="Banner">
    <mxGraphModel dx="868" dy="426" grid="0" gridSize="10" guides="1" tooltips="1" connect="1" arrows="1" fold="1" page="1" pageScale="1" pageWidth="827" pageHeight="1169" math="0" shadow="0">
      <root>
        <mxCell id="BcglwCOusgq3lU-pg71D-0" />
        <mxCell id="BcglwCOusgq3lU-pg71D-1" parent="BcglwCOusgq3lU-pg71D-0" />
        <mxCell id="J9QRREAzbtfrnXLE7QDD-0" value="开始" style="rounded=1;whiteSpace=wrap;html=1;" parent="BcglwCOusgq3lU-pg71D-1" vertex="1">
          <mxGeometry x="9" y="525" width="120" height="60" as="geometry" />
        </mxCell>
        <mxCell id="J9QRREAzbtfrnXLE7QDD-1" value="" style="endArrow=classic;html=1;" parent="BcglwCOusgq3lU-pg71D-1" edge="1">
          <mxGeometry width="50" height="50" relative="1" as="geometry">
            <mxPoint x="68" y="588" as="sourcePoint" />
            <mxPoint x="68" y="700" as="targetPoint" />
          </mxGeometry>
        </mxCell>
        <mxCell id="J9QRREAzbtfrnXLE7QDD-2" value="" style="edgeStyle=orthogonalEdgeStyle;rounded=0;orthogonalLoop=1;jettySize=auto;html=1;" parent="BcglwCOusgq3lU-pg71D-1" source="J9QRREAzbtfrnXLE7QDD-3" target="J9QRREAzbtfrnXLE7QDD-5" edge="1">
          <mxGeometry relative="1" as="geometry" />
        </mxCell>
        <mxCell id="J9QRREAzbtfrnXLE7QDD-3" value="点击添加Banner" style="rounded=0;whiteSpace=wrap;html=1;" parent="BcglwCOusgq3lU-pg71D-1" vertex="1">
          <mxGeometry x="8" y="700" width="120" height="60" as="geometry" />
        </mxCell>
        <mxCell id="J9QRREAzbtfrnXLE7QDD-4" value="" style="edgeStyle=orthogonalEdgeStyle;rounded=0;orthogonalLoop=1;jettySize=auto;html=1;" parent="BcglwCOusgq3lU-pg71D-1" source="J9QRREAzbtfrnXLE7QDD-5" target="J9QRREAzbtfrnXLE7QDD-7" edge="1">
          <mxGeometry relative="1" as="geometry" />
        </mxCell>
        <mxCell id="J9QRREAzbtfrnXLE7QDD-5" value="编辑Banner信息" style="rounded=0;whiteSpace=wrap;html=1;" parent="BcglwCOusgq3lU-pg71D-1" vertex="1">
          <mxGeometry x="8" y="810" width="120" height="60" as="geometry" />
        </mxCell>
        <mxCell id="J9QRREAzbtfrnXLE7QDD-6" value="是" style="edgeStyle=orthogonalEdgeStyle;rounded=0;orthogonalLoop=1;jettySize=auto;html=1;" parent="BcglwCOusgq3lU-pg71D-1" source="J9QRREAzbtfrnXLE7QDD-7" edge="1">
          <mxGeometry relative="1" as="geometry">
            <mxPoint x="188" y="760" as="targetPoint" />
          </mxGeometry>
        </mxCell>
        <mxCell id="J9QRREAzbtfrnXLE7QDD-7" value="保存" style="rhombus;whiteSpace=wrap;html=1;rounded=0;" parent="BcglwCOusgq3lU-pg71D-1" vertex="1">
          <mxGeometry x="148" y="800" width="80" height="80" as="geometry" />
        </mxCell>
        <mxCell id="J9QRREAzbtfrnXLE7QDD-8" value="" style="edgeStyle=orthogonalEdgeStyle;rounded=0;orthogonalLoop=1;jettySize=auto;html=1;" parent="BcglwCOusgq3lU-pg71D-1" source="J9QRREAzbtfrnXLE7QDD-11" target="J9QRREAzbtfrnXLE7QDD-14" edge="1">
          <mxGeometry relative="1" as="geometry" />
        </mxCell>
        <mxCell id="J9QRREAzbtfrnXLE7QDD-9" value="" style="edgeStyle=orthogonalEdgeStyle;rounded=0;orthogonalLoop=1;jettySize=auto;html=1;" parent="BcglwCOusgq3lU-pg71D-1" source="J9QRREAzbtfrnXLE7QDD-11" target="J9QRREAzbtfrnXLE7QDD-20" edge="1">
          <mxGeometry relative="1" as="geometry" />
        </mxCell>
        <mxCell id="J9QRREAzbtfrnXLE7QDD-10" style="edgeStyle=orthogonalEdgeStyle;rounded=0;orthogonalLoop=1;jettySize=auto;html=1;entryX=1;entryY=0.5;entryDx=0;entryDy=0;" parent="BcglwCOusgq3lU-pg71D-1" source="J9QRREAzbtfrnXLE7QDD-11" target="J9QRREAzbtfrnXLE7QDD-28" edge="1">
          <mxGeometry relative="1" as="geometry">
            <mxPoint x="438" y="970" as="targetPoint" />
            <Array as="points">
              <mxPoint x="474" y="920" />
            </Array>
          </mxGeometry>
        </mxCell>
        <mxCell id="J9QRREAzbtfrnXLE7QDD-11" value="Banner列表" style="whiteSpace=wrap;html=1;rounded=0;" parent="BcglwCOusgq3lU-pg71D-1" vertex="1">
          <mxGeometry x="414" y="810" width="120" height="60" as="geometry" />
        </mxCell>
        <mxCell id="J9QRREAzbtfrnXLE7QDD-12" value="是" style="edgeStyle=orthogonalEdgeStyle;rounded=0;orthogonalLoop=1;jettySize=auto;html=1;" parent="BcglwCOusgq3lU-pg71D-1" source="J9QRREAzbtfrnXLE7QDD-14" target="J9QRREAzbtfrnXLE7QDD-16" edge="1">
          <mxGeometry relative="1" as="geometry" />
        </mxCell>
        <mxCell id="J9QRREAzbtfrnXLE7QDD-13" value="否" style="edgeStyle=orthogonalEdgeStyle;rounded=0;orthogonalLoop=1;jettySize=auto;html=1;" parent="BcglwCOusgq3lU-pg71D-1" source="J9QRREAzbtfrnXLE7QDD-14" target="J9QRREAzbtfrnXLE7QDD-18" edge="1">
          <mxGeometry relative="1" as="geometry" />
        </mxCell>
        <mxCell id="J9QRREAzbtfrnXLE7QDD-14" value="删除Banner" style="rhombus;whiteSpace=wrap;html=1;rounded=0;" parent="BcglwCOusgq3lU-pg71D-1" vertex="1">
          <mxGeometry x="578" y="800" width="80" height="80" as="geometry" />
        </mxCell>
        <mxCell id="J9QRREAzbtfrnXLE7QDD-15" style="edgeStyle=orthogonalEdgeStyle;rounded=0;orthogonalLoop=1;jettySize=auto;html=1;entryX=0.75;entryY=1;entryDx=0;entryDy=0;" parent="BcglwCOusgq3lU-pg71D-1" source="J9QRREAzbtfrnXLE7QDD-16" target="J9QRREAzbtfrnXLE7QDD-11" edge="1">
          <mxGeometry relative="1" as="geometry">
            <mxPoint x="478" y="880" as="targetPoint" />
            <Array as="points">
              <mxPoint x="758" y="920" />
              <mxPoint x="504" y="920" />
            </Array>
          </mxGeometry>
        </mxCell>
        <mxCell id="J9QRREAzbtfrnXLE7QDD-16" value="删除成功" style="whiteSpace=wrap;html=1;rounded=0;" parent="BcglwCOusgq3lU-pg71D-1" vertex="1">
          <mxGeometry x="698" y="810" width="120" height="60" as="geometry" />
        </mxCell>
        <mxCell id="J9QRREAzbtfrnXLE7QDD-17" style="edgeStyle=orthogonalEdgeStyle;rounded=0;orthogonalLoop=1;jettySize=auto;html=1;entryX=0.75;entryY=0;entryDx=0;entryDy=0;" parent="BcglwCOusgq3lU-pg71D-1" source="J9QRREAzbtfrnXLE7QDD-18" target="J9QRREAzbtfrnXLE7QDD-11" edge="1">
          <mxGeometry relative="1" as="geometry" />
        </mxCell>
        <mxCell id="J9QRREAzbtfrnXLE7QDD-18" value="取消删除" style="whiteSpace=wrap;html=1;rounded=0;" parent="BcglwCOusgq3lU-pg71D-1" vertex="1">
          <mxGeometry x="558" y="700" width="120" height="60" as="geometry" />
        </mxCell>
        <mxCell id="J9QRREAzbtfrnXLE7QDD-19" value="" style="edgeStyle=orthogonalEdgeStyle;rounded=0;orthogonalLoop=1;jettySize=auto;html=1;" parent="BcglwCOusgq3lU-pg71D-1" source="J9QRREAzbtfrnXLE7QDD-20" target="J9QRREAzbtfrnXLE7QDD-21" edge="1">
          <mxGeometry relative="1" as="geometry" />
        </mxCell>
        <mxCell id="J9QRREAzbtfrnXLE7QDD-20" value="分页查询" style="whiteSpace=wrap;html=1;rounded=0;" parent="BcglwCOusgq3lU-pg71D-1" vertex="1">
          <mxGeometry x="414" y="630" width="120" height="60" as="geometry" />
        </mxCell>
        <mxCell id="J9QRREAzbtfrnXLE7QDD-21" value="结束" style="rounded=1;whiteSpace=wrap;html=1;" parent="BcglwCOusgq3lU-pg71D-1" vertex="1">
          <mxGeometry x="414" y="525" width="120" height="60" as="geometry" />
        </mxCell>
        <mxCell id="J9QRREAzbtfrnXLE7QDD-22" style="edgeStyle=orthogonalEdgeStyle;rounded=0;orthogonalLoop=1;jettySize=auto;html=1;entryX=0.25;entryY=0;entryDx=0;entryDy=0;" parent="BcglwCOusgq3lU-pg71D-1" source="J9QRREAzbtfrnXLE7QDD-23" target="J9QRREAzbtfrnXLE7QDD-11" edge="1">
          <mxGeometry relative="1" as="geometry" />
        </mxCell>
        <mxCell id="J9QRREAzbtfrnXLE7QDD-23" value="添加/修改成功" style="whiteSpace=wrap;html=1;rounded=0;" parent="BcglwCOusgq3lU-pg71D-1" vertex="1">
          <mxGeometry x="138" y="700" width="120" height="60" as="geometry" />
        </mxCell>
        <mxCell id="J9QRREAzbtfrnXLE7QDD-24" style="edgeStyle=orthogonalEdgeStyle;rounded=0;orthogonalLoop=1;jettySize=auto;html=1;exitX=1;exitY=0.5;exitDx=0;exitDy=0;" parent="BcglwCOusgq3lU-pg71D-1" source="J9QRREAzbtfrnXLE7QDD-25" edge="1">
          <mxGeometry relative="1" as="geometry">
            <mxPoint x="418" y="840" as="targetPoint" />
          </mxGeometry>
        </mxCell>
        <mxCell id="J9QRREAzbtfrnXLE7QDD-25" value="取消添加/修改" style="whiteSpace=wrap;html=1;rounded=0;" parent="BcglwCOusgq3lU-pg71D-1" vertex="1">
          <mxGeometry x="268" y="810" width="120" height="60" as="geometry" />
        </mxCell>
        <mxCell id="J9QRREAzbtfrnXLE7QDD-26" value="否" style="edgeStyle=orthogonalEdgeStyle;rounded=0;orthogonalLoop=1;jettySize=auto;html=1;entryX=0;entryY=0.5;entryDx=0;entryDy=0;" parent="BcglwCOusgq3lU-pg71D-1" source="J9QRREAzbtfrnXLE7QDD-7" target="J9QRREAzbtfrnXLE7QDD-25" edge="1">
          <mxGeometry relative="1" as="geometry">
            <mxPoint x="298" y="840" as="sourcePoint" />
            <mxPoint x="258" y="840" as="targetPoint" />
          </mxGeometry>
        </mxCell>
        <mxCell id="J9QRREAzbtfrnXLE7QDD-27" style="edgeStyle=orthogonalEdgeStyle;rounded=0;orthogonalLoop=1;jettySize=auto;html=1;entryX=0.5;entryY=1;entryDx=0;entryDy=0;" parent="BcglwCOusgq3lU-pg71D-1" source="J9QRREAzbtfrnXLE7QDD-28" target="J9QRREAzbtfrnXLE7QDD-5" edge="1">
          <mxGeometry relative="1" as="geometry">
            <mxPoint x="68" y="920" as="targetPoint" />
          </mxGeometry>
        </mxCell>
        <mxCell id="J9QRREAzbtfrnXLE7QDD-28" value="点击修改Banner" style="whiteSpace=wrap;html=1;rounded=0;" parent="BcglwCOusgq3lU-pg71D-1" vertex="1">
          <mxGeometry x="208" y="890" width="120" height="60" as="geometry" />
        </mxCell>
      </root>
    </mxGraphModel>
  </diagram>
  <diagram id="dxR2vV8RaXJM0IvQhFxH" name="acl">
    <mxGraphModel dx="868" dy="426" grid="0" gridSize="10" guides="1" tooltips="1" connect="1" arrows="1" fold="1" page="1" pageScale="1" pageWidth="827" pageHeight="1169" math="0" shadow="0">
      <root>
        <mxCell id="aWEbkuO0oUN9InwjxX_z-0" />
        <mxCell id="aWEbkuO0oUN9InwjxX_z-1" parent="aWEbkuO0oUN9InwjxX_z-0" />
        <mxCell id="aPOl3zG8PnY79JBc-QtF-0" value="开始" style="rounded=1;whiteSpace=wrap;html=1;" parent="aWEbkuO0oUN9InwjxX_z-1" vertex="1">
          <mxGeometry x="9" y="525" width="120" height="60" as="geometry" />
        </mxCell>
        <mxCell id="aPOl3zG8PnY79JBc-QtF-1" value="" style="endArrow=classic;html=1;" parent="aWEbkuO0oUN9InwjxX_z-1" edge="1">
          <mxGeometry width="50" height="50" relative="1" as="geometry">
            <mxPoint x="68" y="588" as="sourcePoint" />
            <mxPoint x="68" y="700" as="targetPoint" />
          </mxGeometry>
        </mxCell>
        <mxCell id="aPOl3zG8PnY79JBc-QtF-2" value="" style="edgeStyle=orthogonalEdgeStyle;rounded=0;orthogonalLoop=1;jettySize=auto;html=1;" parent="aWEbkuO0oUN9InwjxX_z-1" source="aPOl3zG8PnY79JBc-QtF-3" target="aPOl3zG8PnY79JBc-QtF-5" edge="1">
          <mxGeometry relative="1" as="geometry" />
        </mxCell>
        <mxCell id="aPOl3zG8PnY79JBc-QtF-3" value="点击添加菜单" style="rounded=0;whiteSpace=wrap;html=1;" parent="aWEbkuO0oUN9InwjxX_z-1" vertex="1">
          <mxGeometry x="8" y="700" width="120" height="60" as="geometry" />
        </mxCell>
        <mxCell id="aPOl3zG8PnY79JBc-QtF-4" value="" style="edgeStyle=orthogonalEdgeStyle;rounded=0;orthogonalLoop=1;jettySize=auto;html=1;" parent="aWEbkuO0oUN9InwjxX_z-1" source="aPOl3zG8PnY79JBc-QtF-5" target="aPOl3zG8PnY79JBc-QtF-7" edge="1">
          <mxGeometry relative="1" as="geometry" />
        </mxCell>
        <mxCell id="aPOl3zG8PnY79JBc-QtF-5" value="编辑菜单信息" style="rounded=0;whiteSpace=wrap;html=1;" parent="aWEbkuO0oUN9InwjxX_z-1" vertex="1">
          <mxGeometry x="8" y="810" width="120" height="60" as="geometry" />
        </mxCell>
        <mxCell id="aPOl3zG8PnY79JBc-QtF-6" value="是" style="edgeStyle=orthogonalEdgeStyle;rounded=0;orthogonalLoop=1;jettySize=auto;html=1;" parent="aWEbkuO0oUN9InwjxX_z-1" source="aPOl3zG8PnY79JBc-QtF-7" edge="1">
          <mxGeometry relative="1" as="geometry">
            <mxPoint x="188" y="760" as="targetPoint" />
          </mxGeometry>
        </mxCell>
        <mxCell id="aPOl3zG8PnY79JBc-QtF-7" value="保存" style="rhombus;whiteSpace=wrap;html=1;rounded=0;" parent="aWEbkuO0oUN9InwjxX_z-1" vertex="1">
          <mxGeometry x="148" y="800" width="80" height="80" as="geometry" />
        </mxCell>
        <mxCell id="aPOl3zG8PnY79JBc-QtF-8" value="" style="edgeStyle=orthogonalEdgeStyle;rounded=0;orthogonalLoop=1;jettySize=auto;html=1;" parent="aWEbkuO0oUN9InwjxX_z-1" source="aPOl3zG8PnY79JBc-QtF-11" target="aPOl3zG8PnY79JBc-QtF-14" edge="1">
          <mxGeometry relative="1" as="geometry" />
        </mxCell>
        <mxCell id="aPOl3zG8PnY79JBc-QtF-9" value="" style="edgeStyle=orthogonalEdgeStyle;rounded=0;orthogonalLoop=1;jettySize=auto;html=1;" parent="aWEbkuO0oUN9InwjxX_z-1" source="aPOl3zG8PnY79JBc-QtF-11" target="aPOl3zG8PnY79JBc-QtF-20" edge="1">
          <mxGeometry relative="1" as="geometry" />
        </mxCell>
        <mxCell id="aPOl3zG8PnY79JBc-QtF-10" style="edgeStyle=orthogonalEdgeStyle;rounded=0;orthogonalLoop=1;jettySize=auto;html=1;entryX=1;entryY=0.5;entryDx=0;entryDy=0;" parent="aWEbkuO0oUN9InwjxX_z-1" source="aPOl3zG8PnY79JBc-QtF-11" target="aPOl3zG8PnY79JBc-QtF-28" edge="1">
          <mxGeometry relative="1" as="geometry">
            <mxPoint x="438" y="970" as="targetPoint" />
            <Array as="points">
              <mxPoint x="474" y="920" />
            </Array>
          </mxGeometry>
        </mxCell>
        <mxCell id="aPOl3zG8PnY79JBc-QtF-30" style="edgeStyle=orthogonalEdgeStyle;rounded=0;orthogonalLoop=1;jettySize=auto;html=1;exitX=0.25;exitY=0;exitDx=0;exitDy=0;entryX=1;entryY=0.5;entryDx=0;entryDy=0;" parent="aWEbkuO0oUN9InwjxX_z-1" source="aPOl3zG8PnY79JBc-QtF-11" target="aPOl3zG8PnY79JBc-QtF-31" edge="1">
          <mxGeometry relative="1" as="geometry">
            <mxPoint x="168" y="560" as="targetPoint" />
            <Array as="points">
              <mxPoint x="444" y="700" />
              <mxPoint x="348" y="700" />
              <mxPoint x="348" y="660" />
            </Array>
          </mxGeometry>
        </mxCell>
        <mxCell id="aPOl3zG8PnY79JBc-QtF-11" value="菜单列表" style="whiteSpace=wrap;html=1;rounded=0;" parent="aWEbkuO0oUN9InwjxX_z-1" vertex="1">
          <mxGeometry x="414" y="810" width="120" height="60" as="geometry" />
        </mxCell>
        <mxCell id="aPOl3zG8PnY79JBc-QtF-12" value="是" style="edgeStyle=orthogonalEdgeStyle;rounded=0;orthogonalLoop=1;jettySize=auto;html=1;" parent="aWEbkuO0oUN9InwjxX_z-1" source="aPOl3zG8PnY79JBc-QtF-14" target="aPOl3zG8PnY79JBc-QtF-16" edge="1">
          <mxGeometry relative="1" as="geometry" />
        </mxCell>
        <mxCell id="aPOl3zG8PnY79JBc-QtF-13" value="否" style="edgeStyle=orthogonalEdgeStyle;rounded=0;orthogonalLoop=1;jettySize=auto;html=1;" parent="aWEbkuO0oUN9InwjxX_z-1" source="aPOl3zG8PnY79JBc-QtF-14" target="aPOl3zG8PnY79JBc-QtF-18" edge="1">
          <mxGeometry relative="1" as="geometry" />
        </mxCell>
        <mxCell id="aPOl3zG8PnY79JBc-QtF-14" value="删除菜单" style="rhombus;whiteSpace=wrap;html=1;rounded=0;" parent="aWEbkuO0oUN9InwjxX_z-1" vertex="1">
          <mxGeometry x="578" y="800" width="80" height="80" as="geometry" />
        </mxCell>
        <mxCell id="aPOl3zG8PnY79JBc-QtF-15" style="edgeStyle=orthogonalEdgeStyle;rounded=0;orthogonalLoop=1;jettySize=auto;html=1;entryX=0.75;entryY=1;entryDx=0;entryDy=0;" parent="aWEbkuO0oUN9InwjxX_z-1" source="aPOl3zG8PnY79JBc-QtF-16" target="aPOl3zG8PnY79JBc-QtF-11" edge="1">
          <mxGeometry relative="1" as="geometry">
            <mxPoint x="478" y="880" as="targetPoint" />
            <Array as="points">
              <mxPoint x="758" y="920" />
              <mxPoint x="504" y="920" />
            </Array>
          </mxGeometry>
        </mxCell>
        <mxCell id="aPOl3zG8PnY79JBc-QtF-16" value="删除成功" style="whiteSpace=wrap;html=1;rounded=0;" parent="aWEbkuO0oUN9InwjxX_z-1" vertex="1">
          <mxGeometry x="698" y="810" width="120" height="60" as="geometry" />
        </mxCell>
        <mxCell id="aPOl3zG8PnY79JBc-QtF-17" style="edgeStyle=orthogonalEdgeStyle;rounded=0;orthogonalLoop=1;jettySize=auto;html=1;entryX=0.75;entryY=0;entryDx=0;entryDy=0;" parent="aWEbkuO0oUN9InwjxX_z-1" source="aPOl3zG8PnY79JBc-QtF-18" target="aPOl3zG8PnY79JBc-QtF-11" edge="1">
          <mxGeometry relative="1" as="geometry" />
        </mxCell>
        <mxCell id="aPOl3zG8PnY79JBc-QtF-18" value="取消删除" style="whiteSpace=wrap;html=1;rounded=0;" parent="aWEbkuO0oUN9InwjxX_z-1" vertex="1">
          <mxGeometry x="558" y="700" width="120" height="60" as="geometry" />
        </mxCell>
        <mxCell id="aPOl3zG8PnY79JBc-QtF-19" value="" style="edgeStyle=orthogonalEdgeStyle;rounded=0;orthogonalLoop=1;jettySize=auto;html=1;" parent="aWEbkuO0oUN9InwjxX_z-1" source="aPOl3zG8PnY79JBc-QtF-20" target="aPOl3zG8PnY79JBc-QtF-21" edge="1">
          <mxGeometry relative="1" as="geometry" />
        </mxCell>
        <mxCell id="aPOl3zG8PnY79JBc-QtF-20" value="模糊查询" style="whiteSpace=wrap;html=1;rounded=0;" parent="aWEbkuO0oUN9InwjxX_z-1" vertex="1">
          <mxGeometry x="414" y="630" width="120" height="60" as="geometry" />
        </mxCell>
        <mxCell id="aPOl3zG8PnY79JBc-QtF-21" value="结束" style="rounded=1;whiteSpace=wrap;html=1;" parent="aWEbkuO0oUN9InwjxX_z-1" vertex="1">
          <mxGeometry x="414" y="525" width="120" height="60" as="geometry" />
        </mxCell>
        <mxCell id="aPOl3zG8PnY79JBc-QtF-22" style="edgeStyle=orthogonalEdgeStyle;rounded=0;orthogonalLoop=1;jettySize=auto;html=1;entryX=0;entryY=0.25;entryDx=0;entryDy=0;" parent="aWEbkuO0oUN9InwjxX_z-1" source="aPOl3zG8PnY79JBc-QtF-23" target="aPOl3zG8PnY79JBc-QtF-11" edge="1">
          <mxGeometry relative="1" as="geometry">
            <mxPoint x="408" y="830" as="targetPoint" />
            <Array as="points">
              <mxPoint x="398" y="730" />
              <mxPoint x="398" y="825" />
            </Array>
          </mxGeometry>
        </mxCell>
        <mxCell id="aPOl3zG8PnY79JBc-QtF-23" value="添加/修改成功" style="whiteSpace=wrap;html=1;rounded=0;" parent="aWEbkuO0oUN9InwjxX_z-1" vertex="1">
          <mxGeometry x="138" y="700" width="120" height="60" as="geometry" />
        </mxCell>
        <mxCell id="aPOl3zG8PnY79JBc-QtF-24" style="edgeStyle=orthogonalEdgeStyle;rounded=0;orthogonalLoop=1;jettySize=auto;html=1;exitX=1;exitY=0.5;exitDx=0;exitDy=0;" parent="aWEbkuO0oUN9InwjxX_z-1" source="aPOl3zG8PnY79JBc-QtF-25" edge="1">
          <mxGeometry relative="1" as="geometry">
            <mxPoint x="418" y="840" as="targetPoint" />
          </mxGeometry>
        </mxCell>
        <mxCell id="aPOl3zG8PnY79JBc-QtF-25" value="取消添加/修改" style="whiteSpace=wrap;html=1;rounded=0;" parent="aWEbkuO0oUN9InwjxX_z-1" vertex="1">
          <mxGeometry x="268" y="810" width="120" height="60" as="geometry" />
        </mxCell>
        <mxCell id="aPOl3zG8PnY79JBc-QtF-26" value="否" style="edgeStyle=orthogonalEdgeStyle;rounded=0;orthogonalLoop=1;jettySize=auto;html=1;entryX=0;entryY=0.5;entryDx=0;entryDy=0;" parent="aWEbkuO0oUN9InwjxX_z-1" source="aPOl3zG8PnY79JBc-QtF-7" target="aPOl3zG8PnY79JBc-QtF-25" edge="1">
          <mxGeometry relative="1" as="geometry">
            <mxPoint x="298" y="840" as="sourcePoint" />
            <mxPoint x="258" y="840" as="targetPoint" />
          </mxGeometry>
        </mxCell>
        <mxCell id="aPOl3zG8PnY79JBc-QtF-27" style="edgeStyle=orthogonalEdgeStyle;rounded=0;orthogonalLoop=1;jettySize=auto;html=1;entryX=0.5;entryY=1;entryDx=0;entryDy=0;" parent="aWEbkuO0oUN9InwjxX_z-1" source="aPOl3zG8PnY79JBc-QtF-28" target="aPOl3zG8PnY79JBc-QtF-5" edge="1">
          <mxGeometry relative="1" as="geometry">
            <mxPoint x="68" y="920" as="targetPoint" />
          </mxGeometry>
        </mxCell>
        <mxCell id="aPOl3zG8PnY79JBc-QtF-28" value="点击修改菜单" style="whiteSpace=wrap;html=1;rounded=0;" parent="aWEbkuO0oUN9InwjxX_z-1" vertex="1">
          <mxGeometry x="208" y="890" width="120" height="60" as="geometry" />
        </mxCell>
        <mxCell id="aPOl3zG8PnY79JBc-QtF-32" style="edgeStyle=orthogonalEdgeStyle;rounded=0;orthogonalLoop=1;jettySize=auto;html=1;entryX=0.75;entryY=0;entryDx=0;entryDy=0;" parent="aWEbkuO0oUN9InwjxX_z-1" source="aPOl3zG8PnY79JBc-QtF-31" target="aPOl3zG8PnY79JBc-QtF-3" edge="1">
          <mxGeometry relative="1" as="geometry" />
        </mxCell>
        <mxCell id="aPOl3zG8PnY79JBc-QtF-31" value="点击添加子菜单" style="whiteSpace=wrap;html=1;rounded=0;" parent="aWEbkuO0oUN9InwjxX_z-1" vertex="1">
          <mxGeometry x="158" y="630" width="120" height="60" as="geometry" />
        </mxCell>
      </root>
    </mxGraphModel>
  </diagram>
  <diagram id="7Fi5w5VjO_oRfPbWWe2o" name="role">
    <mxGraphModel dx="868" dy="426" grid="0" gridSize="10" guides="1" tooltips="1" connect="1" arrows="1" fold="1" page="1" pageScale="1" pageWidth="827" pageHeight="1169" math="0" shadow="0">
      <root>
        <mxCell id="eifwbLDDY7XdTb2zOOH7-0" />
        <mxCell id="eifwbLDDY7XdTb2zOOH7-1" parent="eifwbLDDY7XdTb2zOOH7-0" />
        <mxCell id="fn1y3LH1AuA-GeYex6Y1-0" value="开始" style="rounded=1;whiteSpace=wrap;html=1;" parent="eifwbLDDY7XdTb2zOOH7-1" vertex="1">
          <mxGeometry x="8" y="525" width="120" height="60" as="geometry" />
        </mxCell>
        <mxCell id="fn1y3LH1AuA-GeYex6Y1-1" value="" style="endArrow=classic;html=1;" parent="eifwbLDDY7XdTb2zOOH7-1" edge="1">
          <mxGeometry width="50" height="50" relative="1" as="geometry">
            <mxPoint x="67" y="588" as="sourcePoint" />
            <mxPoint x="67" y="700" as="targetPoint" />
          </mxGeometry>
        </mxCell>
        <mxCell id="fn1y3LH1AuA-GeYex6Y1-2" value="" style="edgeStyle=orthogonalEdgeStyle;rounded=0;orthogonalLoop=1;jettySize=auto;html=1;" parent="eifwbLDDY7XdTb2zOOH7-1" source="fn1y3LH1AuA-GeYex6Y1-3" target="fn1y3LH1AuA-GeYex6Y1-5" edge="1">
          <mxGeometry relative="1" as="geometry" />
        </mxCell>
        <mxCell id="fn1y3LH1AuA-GeYex6Y1-3" value="点击添加角色" style="rounded=0;whiteSpace=wrap;html=1;" parent="eifwbLDDY7XdTb2zOOH7-1" vertex="1">
          <mxGeometry x="7" y="700" width="120" height="60" as="geometry" />
        </mxCell>
        <mxCell id="fn1y3LH1AuA-GeYex6Y1-4" value="" style="edgeStyle=orthogonalEdgeStyle;rounded=0;orthogonalLoop=1;jettySize=auto;html=1;" parent="eifwbLDDY7XdTb2zOOH7-1" source="fn1y3LH1AuA-GeYex6Y1-5" target="fn1y3LH1AuA-GeYex6Y1-7" edge="1">
          <mxGeometry relative="1" as="geometry" />
        </mxCell>
        <mxCell id="fn1y3LH1AuA-GeYex6Y1-5" value="分配菜单权限" style="rounded=0;whiteSpace=wrap;html=1;" parent="eifwbLDDY7XdTb2zOOH7-1" vertex="1">
          <mxGeometry x="7" y="810" width="120" height="60" as="geometry" />
        </mxCell>
        <mxCell id="fn1y3LH1AuA-GeYex6Y1-6" value="是" style="edgeStyle=orthogonalEdgeStyle;rounded=0;orthogonalLoop=1;jettySize=auto;html=1;" parent="eifwbLDDY7XdTb2zOOH7-1" source="fn1y3LH1AuA-GeYex6Y1-7" edge="1">
          <mxGeometry relative="1" as="geometry">
            <mxPoint x="187" y="760" as="targetPoint" />
          </mxGeometry>
        </mxCell>
        <mxCell id="fn1y3LH1AuA-GeYex6Y1-7" value="保存" style="rhombus;whiteSpace=wrap;html=1;rounded=0;" parent="eifwbLDDY7XdTb2zOOH7-1" vertex="1">
          <mxGeometry x="147" y="800" width="80" height="80" as="geometry" />
        </mxCell>
        <mxCell id="fn1y3LH1AuA-GeYex6Y1-8" value="" style="edgeStyle=orthogonalEdgeStyle;rounded=0;orthogonalLoop=1;jettySize=auto;html=1;" parent="eifwbLDDY7XdTb2zOOH7-1" source="fn1y3LH1AuA-GeYex6Y1-11" target="fn1y3LH1AuA-GeYex6Y1-14" edge="1">
          <mxGeometry relative="1" as="geometry" />
        </mxCell>
        <mxCell id="fn1y3LH1AuA-GeYex6Y1-9" value="" style="edgeStyle=orthogonalEdgeStyle;rounded=0;orthogonalLoop=1;jettySize=auto;html=1;" parent="eifwbLDDY7XdTb2zOOH7-1" source="fn1y3LH1AuA-GeYex6Y1-11" target="fn1y3LH1AuA-GeYex6Y1-20" edge="1">
          <mxGeometry relative="1" as="geometry" />
        </mxCell>
        <mxCell id="fn1y3LH1AuA-GeYex6Y1-10" style="edgeStyle=orthogonalEdgeStyle;rounded=0;orthogonalLoop=1;jettySize=auto;html=1;entryX=1;entryY=0.5;entryDx=0;entryDy=0;" parent="eifwbLDDY7XdTb2zOOH7-1" source="fn1y3LH1AuA-GeYex6Y1-11" target="fn1y3LH1AuA-GeYex6Y1-28" edge="1">
          <mxGeometry relative="1" as="geometry">
            <mxPoint x="437" y="970" as="targetPoint" />
            <Array as="points">
              <mxPoint x="473" y="920" />
            </Array>
          </mxGeometry>
        </mxCell>
        <mxCell id="fn1y3LH1AuA-GeYex6Y1-11" value="角色列表" style="whiteSpace=wrap;html=1;rounded=0;" parent="eifwbLDDY7XdTb2zOOH7-1" vertex="1">
          <mxGeometry x="413" y="810" width="120" height="60" as="geometry" />
        </mxCell>
        <mxCell id="fn1y3LH1AuA-GeYex6Y1-12" value="是" style="edgeStyle=orthogonalEdgeStyle;rounded=0;orthogonalLoop=1;jettySize=auto;html=1;" parent="eifwbLDDY7XdTb2zOOH7-1" source="fn1y3LH1AuA-GeYex6Y1-14" target="fn1y3LH1AuA-GeYex6Y1-16" edge="1">
          <mxGeometry relative="1" as="geometry" />
        </mxCell>
        <mxCell id="fn1y3LH1AuA-GeYex6Y1-13" value="否" style="edgeStyle=orthogonalEdgeStyle;rounded=0;orthogonalLoop=1;jettySize=auto;html=1;" parent="eifwbLDDY7XdTb2zOOH7-1" source="fn1y3LH1AuA-GeYex6Y1-14" target="fn1y3LH1AuA-GeYex6Y1-18" edge="1">
          <mxGeometry relative="1" as="geometry" />
        </mxCell>
        <mxCell id="fn1y3LH1AuA-GeYex6Y1-14" value="删除角色" style="rhombus;whiteSpace=wrap;html=1;rounded=0;" parent="eifwbLDDY7XdTb2zOOH7-1" vertex="1">
          <mxGeometry x="577" y="800" width="80" height="80" as="geometry" />
        </mxCell>
        <mxCell id="fn1y3LH1AuA-GeYex6Y1-15" style="edgeStyle=orthogonalEdgeStyle;rounded=0;orthogonalLoop=1;jettySize=auto;html=1;entryX=0.75;entryY=1;entryDx=0;entryDy=0;" parent="eifwbLDDY7XdTb2zOOH7-1" source="fn1y3LH1AuA-GeYex6Y1-16" target="fn1y3LH1AuA-GeYex6Y1-11" edge="1">
          <mxGeometry relative="1" as="geometry">
            <mxPoint x="477" y="880" as="targetPoint" />
            <Array as="points">
              <mxPoint x="757" y="920" />
              <mxPoint x="503" y="920" />
            </Array>
          </mxGeometry>
        </mxCell>
        <mxCell id="fn1y3LH1AuA-GeYex6Y1-16" value="删除成功" style="whiteSpace=wrap;html=1;rounded=0;" parent="eifwbLDDY7XdTb2zOOH7-1" vertex="1">
          <mxGeometry x="697" y="810" width="120" height="60" as="geometry" />
        </mxCell>
        <mxCell id="fn1y3LH1AuA-GeYex6Y1-17" style="edgeStyle=orthogonalEdgeStyle;rounded=0;orthogonalLoop=1;jettySize=auto;html=1;entryX=0.75;entryY=0;entryDx=0;entryDy=0;" parent="eifwbLDDY7XdTb2zOOH7-1" source="fn1y3LH1AuA-GeYex6Y1-18" target="fn1y3LH1AuA-GeYex6Y1-11" edge="1">
          <mxGeometry relative="1" as="geometry" />
        </mxCell>
        <mxCell id="fn1y3LH1AuA-GeYex6Y1-18" value="取消删除" style="whiteSpace=wrap;html=1;rounded=0;" parent="eifwbLDDY7XdTb2zOOH7-1" vertex="1">
          <mxGeometry x="557" y="700" width="120" height="60" as="geometry" />
        </mxCell>
        <mxCell id="fn1y3LH1AuA-GeYex6Y1-19" value="" style="edgeStyle=orthogonalEdgeStyle;rounded=0;orthogonalLoop=1;jettySize=auto;html=1;" parent="eifwbLDDY7XdTb2zOOH7-1" source="fn1y3LH1AuA-GeYex6Y1-20" target="fn1y3LH1AuA-GeYex6Y1-21" edge="1">
          <mxGeometry relative="1" as="geometry" />
        </mxCell>
        <mxCell id="fn1y3LH1AuA-GeYex6Y1-20" value="模糊/分页查询" style="whiteSpace=wrap;html=1;rounded=0;" parent="eifwbLDDY7XdTb2zOOH7-1" vertex="1">
          <mxGeometry x="413" y="630" width="120" height="60" as="geometry" />
        </mxCell>
        <mxCell id="fn1y3LH1AuA-GeYex6Y1-21" value="结束" style="rounded=1;whiteSpace=wrap;html=1;" parent="eifwbLDDY7XdTb2zOOH7-1" vertex="1">
          <mxGeometry x="413" y="525" width="120" height="60" as="geometry" />
        </mxCell>
        <mxCell id="fn1y3LH1AuA-GeYex6Y1-22" style="edgeStyle=orthogonalEdgeStyle;rounded=0;orthogonalLoop=1;jettySize=auto;html=1;entryX=0.25;entryY=0;entryDx=0;entryDy=0;" parent="eifwbLDDY7XdTb2zOOH7-1" source="fn1y3LH1AuA-GeYex6Y1-23" target="fn1y3LH1AuA-GeYex6Y1-11" edge="1">
          <mxGeometry relative="1" as="geometry" />
        </mxCell>
        <mxCell id="fn1y3LH1AuA-GeYex6Y1-23" value="添加/修改成功" style="whiteSpace=wrap;html=1;rounded=0;" parent="eifwbLDDY7XdTb2zOOH7-1" vertex="1">
          <mxGeometry x="137" y="700" width="120" height="60" as="geometry" />
        </mxCell>
        <mxCell id="fn1y3LH1AuA-GeYex6Y1-24" style="edgeStyle=orthogonalEdgeStyle;rounded=0;orthogonalLoop=1;jettySize=auto;html=1;exitX=1;exitY=0.5;exitDx=0;exitDy=0;" parent="eifwbLDDY7XdTb2zOOH7-1" source="fn1y3LH1AuA-GeYex6Y1-25" edge="1">
          <mxGeometry relative="1" as="geometry">
            <mxPoint x="417" y="840" as="targetPoint" />
          </mxGeometry>
        </mxCell>
        <mxCell id="fn1y3LH1AuA-GeYex6Y1-25" value="取消添加/修改" style="whiteSpace=wrap;html=1;rounded=0;" parent="eifwbLDDY7XdTb2zOOH7-1" vertex="1">
          <mxGeometry x="267" y="810" width="120" height="60" as="geometry" />
        </mxCell>
        <mxCell id="fn1y3LH1AuA-GeYex6Y1-26" value="否" style="edgeStyle=orthogonalEdgeStyle;rounded=0;orthogonalLoop=1;jettySize=auto;html=1;entryX=0;entryY=0.5;entryDx=0;entryDy=0;" parent="eifwbLDDY7XdTb2zOOH7-1" source="fn1y3LH1AuA-GeYex6Y1-7" target="fn1y3LH1AuA-GeYex6Y1-25" edge="1">
          <mxGeometry relative="1" as="geometry">
            <mxPoint x="297" y="840" as="sourcePoint" />
            <mxPoint x="257" y="840" as="targetPoint" />
          </mxGeometry>
        </mxCell>
        <mxCell id="fn1y3LH1AuA-GeYex6Y1-27" style="edgeStyle=orthogonalEdgeStyle;rounded=0;orthogonalLoop=1;jettySize=auto;html=1;entryX=0.5;entryY=1;entryDx=0;entryDy=0;" parent="eifwbLDDY7XdTb2zOOH7-1" source="fn1y3LH1AuA-GeYex6Y1-28" target="fn1y3LH1AuA-GeYex6Y1-5" edge="1">
          <mxGeometry relative="1" as="geometry">
            <mxPoint x="67" y="920" as="targetPoint" />
          </mxGeometry>
        </mxCell>
        <mxCell id="fn1y3LH1AuA-GeYex6Y1-28" value="点击修改角色" style="whiteSpace=wrap;html=1;rounded=0;" parent="eifwbLDDY7XdTb2zOOH7-1" vertex="1">
          <mxGeometry x="207" y="890" width="120" height="60" as="geometry" />
        </mxCell>
      </root>
    </mxGraphModel>
  </diagram>
  <diagram id="FNZgZGdyOtc-BlSEUMHk" name="user">
    <mxGraphModel dx="868" dy="426" grid="0" gridSize="10" guides="1" tooltips="1" connect="1" arrows="1" fold="1" page="1" pageScale="1" pageWidth="827" pageHeight="1169" math="0" shadow="0">
      <root>
        <mxCell id="BQ0yWTf6Pvy2bp1WewkT-0" />
        <mxCell id="BQ0yWTf6Pvy2bp1WewkT-1" parent="BQ0yWTf6Pvy2bp1WewkT-0" />
        <mxCell id="BQ0yWTf6Pvy2bp1WewkT-2" value="开始" style="rounded=1;whiteSpace=wrap;html=1;" parent="BQ0yWTf6Pvy2bp1WewkT-1" vertex="1">
          <mxGeometry x="9" y="525" width="120" height="60" as="geometry" />
        </mxCell>
        <mxCell id="BQ0yWTf6Pvy2bp1WewkT-3" value="" style="endArrow=classic;html=1;" parent="BQ0yWTf6Pvy2bp1WewkT-1" edge="1">
          <mxGeometry width="50" height="50" relative="1" as="geometry">
            <mxPoint x="68" y="588" as="sourcePoint" />
            <mxPoint x="68" y="700" as="targetPoint" />
          </mxGeometry>
        </mxCell>
        <mxCell id="BQ0yWTf6Pvy2bp1WewkT-4" value="" style="edgeStyle=orthogonalEdgeStyle;rounded=0;orthogonalLoop=1;jettySize=auto;html=1;" parent="BQ0yWTf6Pvy2bp1WewkT-1" source="BQ0yWTf6Pvy2bp1WewkT-5" target="BQ0yWTf6Pvy2bp1WewkT-7" edge="1">
          <mxGeometry relative="1" as="geometry" />
        </mxCell>
        <mxCell id="BQ0yWTf6Pvy2bp1WewkT-5" value="点击添加用户" style="rounded=0;whiteSpace=wrap;html=1;" parent="BQ0yWTf6Pvy2bp1WewkT-1" vertex="1">
          <mxGeometry x="8" y="700" width="120" height="60" as="geometry" />
        </mxCell>
        <mxCell id="BQ0yWTf6Pvy2bp1WewkT-6" value="" style="edgeStyle=orthogonalEdgeStyle;rounded=0;orthogonalLoop=1;jettySize=auto;html=1;" parent="BQ0yWTf6Pvy2bp1WewkT-1" source="BQ0yWTf6Pvy2bp1WewkT-7" target="BQ0yWTf6Pvy2bp1WewkT-9" edge="1">
          <mxGeometry relative="1" as="geometry" />
        </mxCell>
        <mxCell id="BQ0yWTf6Pvy2bp1WewkT-7" value="分配角色权限" style="rounded=0;whiteSpace=wrap;html=1;" parent="BQ0yWTf6Pvy2bp1WewkT-1" vertex="1">
          <mxGeometry x="8" y="810" width="120" height="60" as="geometry" />
        </mxCell>
        <mxCell id="BQ0yWTf6Pvy2bp1WewkT-8" value="是" style="edgeStyle=orthogonalEdgeStyle;rounded=0;orthogonalLoop=1;jettySize=auto;html=1;" parent="BQ0yWTf6Pvy2bp1WewkT-1" source="BQ0yWTf6Pvy2bp1WewkT-9" edge="1">
          <mxGeometry relative="1" as="geometry">
            <mxPoint x="188" y="760" as="targetPoint" />
          </mxGeometry>
        </mxCell>
        <mxCell id="BQ0yWTf6Pvy2bp1WewkT-9" value="保存" style="rhombus;whiteSpace=wrap;html=1;rounded=0;" parent="BQ0yWTf6Pvy2bp1WewkT-1" vertex="1">
          <mxGeometry x="148" y="800" width="80" height="80" as="geometry" />
        </mxCell>
        <mxCell id="BQ0yWTf6Pvy2bp1WewkT-10" value="" style="edgeStyle=orthogonalEdgeStyle;rounded=0;orthogonalLoop=1;jettySize=auto;html=1;" parent="BQ0yWTf6Pvy2bp1WewkT-1" source="BQ0yWTf6Pvy2bp1WewkT-13" target="BQ0yWTf6Pvy2bp1WewkT-16" edge="1">
          <mxGeometry relative="1" as="geometry" />
        </mxCell>
        <mxCell id="BQ0yWTf6Pvy2bp1WewkT-11" value="" style="edgeStyle=orthogonalEdgeStyle;rounded=0;orthogonalLoop=1;jettySize=auto;html=1;" parent="BQ0yWTf6Pvy2bp1WewkT-1" source="BQ0yWTf6Pvy2bp1WewkT-13" target="BQ0yWTf6Pvy2bp1WewkT-22" edge="1">
          <mxGeometry relative="1" as="geometry" />
        </mxCell>
        <mxCell id="BQ0yWTf6Pvy2bp1WewkT-12" style="edgeStyle=orthogonalEdgeStyle;rounded=0;orthogonalLoop=1;jettySize=auto;html=1;entryX=1;entryY=0.5;entryDx=0;entryDy=0;" parent="BQ0yWTf6Pvy2bp1WewkT-1" source="BQ0yWTf6Pvy2bp1WewkT-13" target="BQ0yWTf6Pvy2bp1WewkT-30" edge="1">
          <mxGeometry relative="1" as="geometry">
            <mxPoint x="438" y="970" as="targetPoint" />
            <Array as="points">
              <mxPoint x="474" y="920" />
            </Array>
          </mxGeometry>
        </mxCell>
        <mxCell id="BQ0yWTf6Pvy2bp1WewkT-13" value="管理员用户列表" style="whiteSpace=wrap;html=1;rounded=0;" parent="BQ0yWTf6Pvy2bp1WewkT-1" vertex="1">
          <mxGeometry x="414" y="810" width="120" height="60" as="geometry" />
        </mxCell>
        <mxCell id="BQ0yWTf6Pvy2bp1WewkT-14" value="是" style="edgeStyle=orthogonalEdgeStyle;rounded=0;orthogonalLoop=1;jettySize=auto;html=1;" parent="BQ0yWTf6Pvy2bp1WewkT-1" source="BQ0yWTf6Pvy2bp1WewkT-16" target="BQ0yWTf6Pvy2bp1WewkT-18" edge="1">
          <mxGeometry relative="1" as="geometry" />
        </mxCell>
        <mxCell id="BQ0yWTf6Pvy2bp1WewkT-15" value="否" style="edgeStyle=orthogonalEdgeStyle;rounded=0;orthogonalLoop=1;jettySize=auto;html=1;" parent="BQ0yWTf6Pvy2bp1WewkT-1" source="BQ0yWTf6Pvy2bp1WewkT-16" target="BQ0yWTf6Pvy2bp1WewkT-20" edge="1">
          <mxGeometry relative="1" as="geometry" />
        </mxCell>
        <mxCell id="BQ0yWTf6Pvy2bp1WewkT-16" value="删除用户" style="rhombus;whiteSpace=wrap;html=1;rounded=0;" parent="BQ0yWTf6Pvy2bp1WewkT-1" vertex="1">
          <mxGeometry x="578" y="800" width="80" height="80" as="geometry" />
        </mxCell>
        <mxCell id="BQ0yWTf6Pvy2bp1WewkT-17" style="edgeStyle=orthogonalEdgeStyle;rounded=0;orthogonalLoop=1;jettySize=auto;html=1;entryX=0.75;entryY=1;entryDx=0;entryDy=0;" parent="BQ0yWTf6Pvy2bp1WewkT-1" source="BQ0yWTf6Pvy2bp1WewkT-18" target="BQ0yWTf6Pvy2bp1WewkT-13" edge="1">
          <mxGeometry relative="1" as="geometry">
            <mxPoint x="478" y="880" as="targetPoint" />
            <Array as="points">
              <mxPoint x="758" y="920" />
              <mxPoint x="504" y="920" />
            </Array>
          </mxGeometry>
        </mxCell>
        <mxCell id="BQ0yWTf6Pvy2bp1WewkT-18" value="删除成功" style="whiteSpace=wrap;html=1;rounded=0;" parent="BQ0yWTf6Pvy2bp1WewkT-1" vertex="1">
          <mxGeometry x="698" y="810" width="120" height="60" as="geometry" />
        </mxCell>
        <mxCell id="BQ0yWTf6Pvy2bp1WewkT-19" style="edgeStyle=orthogonalEdgeStyle;rounded=0;orthogonalLoop=1;jettySize=auto;html=1;entryX=0.75;entryY=0;entryDx=0;entryDy=0;" parent="BQ0yWTf6Pvy2bp1WewkT-1" source="BQ0yWTf6Pvy2bp1WewkT-20" target="BQ0yWTf6Pvy2bp1WewkT-13" edge="1">
          <mxGeometry relative="1" as="geometry" />
        </mxCell>
        <mxCell id="BQ0yWTf6Pvy2bp1WewkT-20" value="取消删除" style="whiteSpace=wrap;html=1;rounded=0;" parent="BQ0yWTf6Pvy2bp1WewkT-1" vertex="1">
          <mxGeometry x="558" y="700" width="120" height="60" as="geometry" />
        </mxCell>
        <mxCell id="BQ0yWTf6Pvy2bp1WewkT-21" value="" style="edgeStyle=orthogonalEdgeStyle;rounded=0;orthogonalLoop=1;jettySize=auto;html=1;" parent="BQ0yWTf6Pvy2bp1WewkT-1" source="BQ0yWTf6Pvy2bp1WewkT-22" target="BQ0yWTf6Pvy2bp1WewkT-23" edge="1">
          <mxGeometry relative="1" as="geometry" />
        </mxCell>
        <mxCell id="BQ0yWTf6Pvy2bp1WewkT-22" value="模糊/分页查询" style="whiteSpace=wrap;html=1;rounded=0;" parent="BQ0yWTf6Pvy2bp1WewkT-1" vertex="1">
          <mxGeometry x="414" y="630" width="120" height="60" as="geometry" />
        </mxCell>
        <mxCell id="BQ0yWTf6Pvy2bp1WewkT-23" value="结束" style="rounded=1;whiteSpace=wrap;html=1;" parent="BQ0yWTf6Pvy2bp1WewkT-1" vertex="1">
          <mxGeometry x="414" y="525" width="120" height="60" as="geometry" />
        </mxCell>
        <mxCell id="BQ0yWTf6Pvy2bp1WewkT-24" style="edgeStyle=orthogonalEdgeStyle;rounded=0;orthogonalLoop=1;jettySize=auto;html=1;entryX=0.25;entryY=0;entryDx=0;entryDy=0;" parent="BQ0yWTf6Pvy2bp1WewkT-1" source="BQ0yWTf6Pvy2bp1WewkT-25" target="BQ0yWTf6Pvy2bp1WewkT-13" edge="1">
          <mxGeometry relative="1" as="geometry" />
        </mxCell>
        <mxCell id="BQ0yWTf6Pvy2bp1WewkT-25" value="添加/修改成功" style="whiteSpace=wrap;html=1;rounded=0;" parent="BQ0yWTf6Pvy2bp1WewkT-1" vertex="1">
          <mxGeometry x="138" y="700" width="120" height="60" as="geometry" />
        </mxCell>
        <mxCell id="BQ0yWTf6Pvy2bp1WewkT-26" style="edgeStyle=orthogonalEdgeStyle;rounded=0;orthogonalLoop=1;jettySize=auto;html=1;exitX=1;exitY=0.5;exitDx=0;exitDy=0;" parent="BQ0yWTf6Pvy2bp1WewkT-1" source="BQ0yWTf6Pvy2bp1WewkT-27" edge="1">
          <mxGeometry relative="1" as="geometry">
            <mxPoint x="418" y="840" as="targetPoint" />
          </mxGeometry>
        </mxCell>
        <mxCell id="BQ0yWTf6Pvy2bp1WewkT-27" value="取消添加/修改" style="whiteSpace=wrap;html=1;rounded=0;" parent="BQ0yWTf6Pvy2bp1WewkT-1" vertex="1">
          <mxGeometry x="268" y="810" width="120" height="60" as="geometry" />
        </mxCell>
        <mxCell id="BQ0yWTf6Pvy2bp1WewkT-28" value="否" style="edgeStyle=orthogonalEdgeStyle;rounded=0;orthogonalLoop=1;jettySize=auto;html=1;entryX=0;entryY=0.5;entryDx=0;entryDy=0;" parent="BQ0yWTf6Pvy2bp1WewkT-1" source="BQ0yWTf6Pvy2bp1WewkT-9" target="BQ0yWTf6Pvy2bp1WewkT-27" edge="1">
          <mxGeometry relative="1" as="geometry">
            <mxPoint x="298" y="840" as="sourcePoint" />
            <mxPoint x="258" y="840" as="targetPoint" />
          </mxGeometry>
        </mxCell>
        <mxCell id="BQ0yWTf6Pvy2bp1WewkT-29" style="edgeStyle=orthogonalEdgeStyle;rounded=0;orthogonalLoop=1;jettySize=auto;html=1;entryX=0.5;entryY=1;entryDx=0;entryDy=0;" parent="BQ0yWTf6Pvy2bp1WewkT-1" source="BQ0yWTf6Pvy2bp1WewkT-30" target="BQ0yWTf6Pvy2bp1WewkT-7" edge="1">
          <mxGeometry relative="1" as="geometry">
            <mxPoint x="68" y="920" as="targetPoint" />
          </mxGeometry>
        </mxCell>
        <mxCell id="BQ0yWTf6Pvy2bp1WewkT-30" value="点击修改用户" style="whiteSpace=wrap;html=1;rounded=0;" parent="BQ0yWTf6Pvy2bp1WewkT-1" vertex="1">
          <mxGeometry x="208" y="890" width="120" height="60" as="geometry" />
        </mxCell>
      </root>
    </mxGraphModel>
  </diagram>
</mxfile>
